<svg width="239" height="33" viewBox="0 0 239 33" fill="none" xmlns="http://www.w3.org/2000/svg">
<path fill-rule="evenodd" clip-rule="evenodd" d="M94.8779 15.5062L94.9014 15.4056C95.0424 14.8191 95.2787 14.2633 95.603 13.756C95.9217 13.2585 96.3171 12.818 96.7784 12.4494C97.2434 12.0776 97.7621 11.7874 98.3208 11.5878C98.8979 11.3819 99.5045 11.2767 100.125 11.2755C101.269 11.278 102.363 11.7031 103.206 12.4717C104.044 13.2364 104.57 14.2842 104.686 15.4166L104.695 15.5062H94.8779ZM103.021 9.15847C102.137 8.78242 101.197 8.59992 100.227 8.58643H100.188C99.1082 8.59992 98.0604 8.80328 97.0743 9.22135C96.1159 9.62715 95.2546 10.2087 94.5148 10.9491C93.7751 11.6893 93.1928 12.5521 92.785 13.5134C92.3627 14.5075 92.1459 15.5654 92.1404 16.6564V16.6598V16.6647L92.1383 16.6656L92.1362 16.6767V16.6776L92.1386 16.6966C92.1435 17.8036 92.3636 18.8768 92.7889 19.8866C93.2002 20.862 93.7882 21.7398 94.5347 22.4944C95.2815 23.2486 96.151 23.8434 97.1197 24.2624C98.1215 24.6958 99.187 24.9218 100.287 24.9341L100.319 24.9344H100.325L100.347 24.9326L100.362 24.9313H100.364L100.379 24.9326C101.59 24.9191 102.751 24.6458 103.83 24.1197C104.849 23.6222 105.74 22.929 106.479 22.0567L104.451 20.4227C103.949 21.0086 103.35 21.4721 102.67 21.807C101.938 22.1686 101.15 22.3606 100.332 22.3606H100.33C99.6981 22.3606 99.0783 22.2468 98.4897 22.0361C97.92 21.8321 97.389 21.5395 96.9118 21.1638C96.4389 20.792 96.0304 20.3497 95.6967 19.8482C95.3587 19.3388 95.1059 18.7802 94.9462 18.1901L94.9191 18.0895H107.413L107.429 15.8457C107.429 14.8654 107.238 13.9155 106.862 13.0208C106.499 12.1561 105.979 11.3798 105.316 10.7136C104.654 10.0474 103.881 9.52409 103.021 9.15847Z" fill="#585858"/>
<path fill-rule="evenodd" clip-rule="evenodd" d="M78.696 16.9938C78.696 19.9679 76.2966 22.3788 73.3366 22.3788C70.3766 22.3788 67.9775 19.9679 67.9775 16.9938C67.9775 16.9233 67.9787 16.8527 67.9815 16.7828C67.9787 16.7126 67.9775 16.642 67.9775 16.5715C67.9775 13.5974 70.3766 11.1866 73.3366 11.1866C76.2966 11.1866 78.696 13.5974 78.696 16.5715C78.696 16.642 78.6948 16.7126 78.692 16.7828C78.6948 16.8527 78.696 16.9233 78.696 16.9938ZM73.3329 8.58398C68.8617 8.58398 65.2245 12.1982 65.1836 16.6807V32.5646H67.9228V22.4011C69.2918 23.8492 71.1722 24.7973 73.2755 24.943C73.2938 24.943 73.3134 24.9433 73.3311 24.9433C77.8277 24.9433 81.4743 21.2825 81.4743 16.7647C81.4743 12.4653 78.1721 8.94193 73.9771 8.6119C73.9515 8.61005 73.8226 8.59993 73.8098 8.59901C73.652 8.58981 73.4929 8.58398 73.3329 8.58398Z" fill="#585858"/>
<path fill-rule="evenodd" clip-rule="evenodd" d="M36.9009 21.6658V14.9856H45.6929V12.3158H36.9009V5.77698H46.7969V2.96582H34.1024V24.4776H47.5669V21.6658H36.9009Z" fill="#585858"/>
<path fill-rule="evenodd" clip-rule="evenodd" d="M63.9749 9.02783H60.7323L56.3892 14.6894L52.0459 9.02783H48.8035L54.7296 16.7525L48.8035 24.4771H52.0459L56.3892 18.8155L60.7323 24.4771H63.9749L58.0489 16.7525L63.9749 9.02783Z" fill="#585858"/>
<path fill-rule="evenodd" clip-rule="evenodd" d="M119.111 16.7466C118.648 16.392 118.107 16.1096 117.49 15.8991C116.871 15.689 116.221 15.5173 115.536 15.3841C115.029 15.2958 114.538 15.1845 114.064 15.052C113.589 14.9191 113.17 14.7645 112.806 14.5873C112.441 14.41 112.154 14.2051 111.945 13.972C111.736 13.7398 111.631 13.4573 111.631 13.1248C111.631 12.7702 111.725 12.4546 111.912 12.1779C112.1 11.9009 112.337 11.6743 112.624 11.497C112.91 11.3197 113.235 11.1869 113.599 11.0979C113.963 11.0096 114.322 10.9654 114.675 10.9654C114.743 10.9654 114.81 10.9666 114.876 10.9694C116.213 11.0169 117.393 11.7019 118.115 12.73L120.159 11.3451C118.99 9.66919 117.061 8.5846 114.876 8.58398C114.115 8.58398 113.411 8.68398 112.727 8.88304C112.044 9.08242 111.427 9.37074 110.875 9.7471C110.325 10.1235 109.883 10.5995 109.553 11.1755C109.222 11.7519 109.057 12.4162 109.057 13.1693C109.057 13.9667 109.206 14.6198 109.504 15.1292C109.801 15.639 110.198 16.0543 110.695 16.3752C111.19 16.6966 111.77 16.957 112.431 17.1564C113.093 17.3555 113.787 17.5328 114.515 17.6877C114.934 17.7763 115.342 17.8763 115.739 17.9867C116.136 18.0975 116.489 18.2477 116.797 18.4355C117.106 18.6238 117.355 18.8511 117.542 19.1167C117.73 19.3823 117.823 19.7256 117.823 20.1467C117.823 20.5672 117.724 20.927 117.526 21.2261C117.328 21.5257 117.064 21.7748 116.733 21.9739C116.402 22.1733 116.034 22.3171 115.627 22.4054C115.253 22.4873 114.883 22.5309 114.518 22.5376C112.849 22.5358 111.39 21.7371 110.496 20.5071L108.423 22.1248C109.891 23.8345 112.072 24.9225 114.501 24.9271C115.251 24.9117 115.969 24.8234 116.676 24.6541C117.413 24.4771 118.078 24.1943 118.663 23.8072C119.246 23.4195 119.717 22.9152 120.07 22.2953C120.423 21.6751 120.6 20.9215 120.6 20.0357C120.6 19.2603 120.468 18.6066 120.204 18.0751C119.939 17.5441 119.575 17.1009 119.111 16.7466Z" fill="#585858"/>
<path fill-rule="evenodd" clip-rule="evenodd" d="M133.525 18.0759C133.26 17.5446 132.896 17.1014 132.432 16.7471C131.969 16.3925 131.428 16.11 130.81 15.8999C130.192 15.6892 129.542 15.5177 128.858 15.3846C128.35 15.296 127.859 15.1849 127.385 15.0524C126.91 14.9193 126.491 14.7647 126.127 14.5871C125.763 14.4102 125.476 14.2056 125.266 13.9728C125.057 13.74 124.952 13.4578 124.952 13.1253C124.952 12.7707 125.046 12.4551 125.233 12.1784C125.421 11.9017 125.658 11.6741 125.945 11.4972C126.231 11.3199 126.556 11.1874 126.92 11.0984C127.285 11.0101 127.643 10.9653 127.996 10.9653C128.064 10.9653 128.131 10.9671 128.198 10.9699C129.534 11.0177 130.714 11.7024 131.436 12.7302L131.437 12.7235L133.481 11.3459L133.473 11.3395L133.481 11.3346C132.312 9.66998 130.382 8.58447 128.198 8.58447H128.164C127.437 8.58447 126.732 8.68447 126.048 8.88384C125.365 9.0829 124.748 9.37092 124.197 9.74758C123.646 10.1239 123.204 10.5997 122.874 11.176C122.543 11.7521 122.378 12.4167 122.378 13.1694C122.378 13.9672 122.527 14.6203 122.825 15.1297C123.123 15.6395 123.519 16.0548 124.015 16.3757C124.512 16.6971 125.091 16.9575 125.752 17.1566C126.414 17.356 127.108 17.5333 127.836 17.6882C128.255 17.7768 128.663 17.8768 129.061 17.9872C129.457 18.0979 129.81 18.2476 130.119 18.436C130.428 18.6243 130.676 18.8516 130.863 19.1175C131.05 19.3828 131.145 19.7264 131.145 20.1466C131.145 20.5677 131.045 20.9275 130.847 21.2266C130.649 21.5256 130.385 21.7753 130.054 21.9744C129.724 22.1734 129.355 22.3176 128.948 22.4059C128.573 22.4878 128.204 22.5314 127.839 22.5378L127.838 22.5341H127.812L127.809 22.5375L127.808 22.5366C126.17 22.5366 124.712 21.7376 123.817 20.5076L121.744 22.1247C123.212 23.835 125.393 24.9229 127.823 24.9275V24.9196C128.572 24.9122 129.29 24.8239 129.997 24.6549C130.734 24.477 131.399 24.1948 131.984 23.8071C132.567 23.42 133.038 22.9157 133.391 22.2958C133.744 21.6756 133.921 20.922 133.921 20.0362C133.921 19.2604 133.79 18.6074 133.525 18.0759Z" fill="#585858"/>
<path fill-rule="evenodd" clip-rule="evenodd" d="M86.2055 8.98924H83.4665V16.3587C83.4665 16.4768 83.4619 16.5985 83.4619 16.7179L83.4665 24.4775H86.2055V16.7268C86.2091 13.7273 88.6217 11.2989 91.5936 11.2955V8.53467C89.5391 8.53651 87.6529 9.31192 86.2055 10.5882V8.98924Z" fill="#585858"/>
<path fill-rule="evenodd" clip-rule="evenodd" d="M20.8528 24.4776H23.5921V2.96582H20.8528V24.4776Z" fill="#585858"/>
<path fill-rule="evenodd" clip-rule="evenodd" d="M5.73738 16.4796L9.63222 6.27904L13.5252 16.4796H5.73738ZM11.0418 2.95166H8.22016L0 24.4766H2.68367L4.65811 19.3098H14.6048L16.5795 24.4766H19.2626L11.0418 2.95166Z" fill="#585858"/>
<path fill-rule="evenodd" clip-rule="evenodd" d="M27.4554 24.4768H30.1944V9.11865H27.4554V24.4768Z" fill="#585858"/>
<path fill-rule="evenodd" clip-rule="evenodd" d="M28.8251 0C28.7594 0 28.7063 0.053678 28.7063 0.120238C28.7063 2.33788 26.9212 4.14297 24.7269 4.14297C24.661 4.14297 24.6078 4.19634 24.6078 4.2629C24.6078 4.32916 24.661 4.38314 24.7269 4.38314C26.9212 4.38314 28.7063 6.18762 28.7063 8.40526C28.7063 8.47182 28.7594 8.5255 28.8251 8.5255H28.8254C28.891 8.5255 28.9442 8.47244 28.9442 8.40588C28.9518 6.1956 30.7369 4.39725 32.9236 4.39725C32.9892 4.39725 33.0426 4.34327 33.0426 4.27732C33.0426 4.21076 32.9892 4.15678 32.9236 4.15678C30.7293 4.15678 28.9442 2.3523 28.9442 0.131587V0.120545C28.9448 0.0889516 28.9319 0.0579721 28.9097 0.0352742C28.8874 0.0128831 28.8568 0 28.8251 0Z" fill="#585858"/>
<path fill-rule="evenodd" clip-rule="evenodd" d="M153.423 12.6502H156.709C158.216 12.6502 159.397 12.3573 160.251 11.7715C161.105 11.1859 161.532 10.2869 161.532 9.07501C161.532 7.82295 161.1 6.92393 160.236 6.37826C159.371 5.8329 158.206 5.55991 156.739 5.55991H153.423V12.6502ZM150.541 3.11621H156.997C158.098 3.11621 159.109 3.23215 160.031 3.46312C160.951 3.6947 161.742 4.05142 162.403 4.53421C163.064 5.017 163.574 5.63076 163.935 6.37458C164.295 7.11901 164.475 8.00392 164.475 9.02961C164.475 10.0556 164.284 10.9454 163.903 11.6997C163.521 12.4539 162.994 13.0778 162.322 13.5704C161.649 14.0633 160.846 14.4302 159.913 14.6716C158.979 14.913 157.971 15.0338 156.887 15.0338H153.423V24.4773H150.541V3.11621Z" fill="#585858"/>
<path fill-rule="evenodd" clip-rule="evenodd" d="M176.537 17.2964C176.537 16.5765 176.422 15.9017 176.192 15.2717C175.962 14.642 175.637 14.0924 175.216 13.6221C174.796 13.1522 174.285 12.7823 173.684 12.5121C173.084 12.2425 172.403 12.1072 171.642 12.1072C170.882 12.1072 170.201 12.2425 169.6 12.5121C169 12.7823 168.489 13.1522 168.069 13.6221C167.648 14.0924 167.328 14.642 167.108 15.2717C166.887 15.9017 166.777 16.5765 166.777 17.2964C166.777 17.9964 166.887 18.6617 167.108 19.2917C167.328 19.9214 167.648 20.4717 168.069 20.9413C168.489 21.4109 169 21.786 169.6 22.066C170.201 22.3458 170.882 22.486 171.642 22.486C172.403 22.486 173.084 22.3458 173.684 22.066C174.285 21.786 174.796 21.4109 175.216 20.9413C175.637 20.4717 175.962 19.9214 176.192 19.2917C176.422 18.6617 176.537 17.9964 176.537 17.2964ZM179.36 17.2964C179.36 18.4028 179.165 19.4187 178.775 20.3441C178.385 21.2692 177.844 22.0688 177.153 22.7424C176.462 23.4163 175.646 23.9392 174.706 24.3113C173.764 24.6831 172.743 24.8692 171.642 24.8692C170.541 24.8692 169.525 24.6831 168.594 24.3113C167.663 23.9392 166.852 23.4163 166.162 22.7424C165.471 22.0688 164.931 21.2692 164.54 20.3441C164.15 19.4187 163.954 18.4028 163.954 17.2964C163.954 16.1907 164.15 15.1748 164.54 14.2491C164.931 13.3243 165.471 12.5247 166.162 11.8508C166.852 11.1769 167.663 10.6542 168.594 10.2819C169.525 9.90982 170.541 9.72363 171.642 9.72363C172.743 9.72363 173.764 9.90982 174.706 10.2819C175.646 10.6542 176.462 11.1769 177.153 11.8508C177.844 12.5247 178.385 13.3243 178.775 14.2491C179.165 15.1748 179.36 16.1907 179.36 17.2964Z" fill="#585858"/>
<path fill-rule="evenodd" clip-rule="evenodd" d="M192.118 13.7967C191.798 13.2942 191.332 12.8869 190.722 12.575C190.111 12.263 189.455 12.1072 188.755 12.1072C188.014 12.1072 187.343 12.2425 186.743 12.5121C186.142 12.7823 185.631 13.147 185.211 13.6071C184.79 14.0672 184.465 14.6172 184.235 15.2567C184.005 15.8968 183.889 16.5765 183.889 17.2964C183.889 18.0169 184.005 18.6966 184.235 19.3365C184.465 19.9763 184.79 20.526 185.211 20.9861C185.631 21.4461 186.142 21.8115 186.743 22.0811C187.343 22.3513 188.014 22.486 188.755 22.486C189.535 22.486 190.221 22.335 190.812 22.0335C191.402 21.7317 191.888 21.3299 192.268 20.8266L194.13 22.5166C193.509 23.2301 192.753 23.8003 191.863 24.2279C190.972 24.6554 189.926 24.8695 188.725 24.8695C187.583 24.8695 186.537 24.683 185.586 24.3113C184.635 23.9392 183.824 23.4163 183.154 22.7424C182.483 22.0688 181.957 21.2692 181.577 20.3441C181.197 19.4187 181.006 18.4031 181.006 17.2964C181.006 16.1907 181.197 15.1748 181.577 14.2494C181.957 13.3243 182.483 12.525 183.154 11.8508C183.824 11.1769 184.635 10.6542 185.586 10.2819C186.537 9.90982 187.583 9.72363 188.725 9.72363C189.705 9.72363 190.687 9.92791 191.667 10.3352C192.648 10.7423 193.44 11.333 194.04 12.1072L192.118 13.7967Z" fill="#585858"/>
<path fill-rule="evenodd" clip-rule="evenodd" d="M206.197 13.7967C205.876 13.2942 205.411 12.8869 204.8 12.575C204.189 12.263 203.534 12.1072 202.833 12.1072C202.092 12.1072 201.422 12.2425 200.821 12.5121C200.221 12.7823 199.71 13.147 199.29 13.6071C198.869 14.0672 198.543 14.6172 198.314 15.2567C198.083 15.8968 197.968 16.5765 197.968 17.2964C197.968 18.0169 198.083 18.6966 198.314 19.3365C198.543 19.9763 198.869 20.526 199.29 20.9861C199.71 21.4461 200.221 21.8115 200.821 22.0811C201.422 22.3513 202.092 22.486 202.833 22.486C203.614 22.486 204.299 22.335 204.89 22.0335C205.481 21.7317 205.966 21.3299 206.347 20.8266L208.209 22.5166C207.588 23.2301 206.832 23.8003 205.941 24.2279C205.05 24.6554 204.004 24.8695 202.803 24.8695C201.662 24.8695 200.616 24.683 199.665 24.3113C198.714 23.9392 197.903 23.4163 197.232 22.7424C196.561 22.0688 196.036 21.2692 195.656 20.3441C195.275 19.4187 195.085 18.4031 195.085 17.2964C195.085 16.1907 195.275 15.1748 195.656 14.2494C196.036 13.3243 196.561 12.525 197.232 11.8508C197.903 11.1769 198.714 10.6542 199.665 10.2819C200.616 9.90982 201.662 9.72363 202.803 9.72363C203.784 9.72363 204.765 9.92791 205.746 10.3352C206.727 10.7423 207.518 11.333 208.119 12.1072L206.197 13.7967Z" fill="#585858"/>
<path fill-rule="evenodd" clip-rule="evenodd" d="M221.152 13.706L213.043 24.477H210.22V10.1157H213.043V20.5853L221.152 10.1157H223.975V24.477H221.152V13.706Z" fill="#585858"/>
<path fill-rule="evenodd" clip-rule="evenodd" d="M229.536 14.5206C229.536 14.943 229.63 15.2853 229.821 15.5463C230.011 15.808 230.266 16.0095 230.587 16.15C230.907 16.2908 231.287 16.3865 231.728 16.4365C232.168 16.4871 232.639 16.5119 233.139 16.5119H235.782V12.4993H233.109C232.569 12.4993 232.078 12.5195 231.638 12.5594C231.197 12.6002 230.822 12.6907 230.512 12.8312C230.201 12.972 229.961 13.1781 229.791 13.4495C229.62 13.7213 229.536 14.0786 229.536 14.5206ZM233.71 18.8047C232.328 18.8047 231.262 19.2679 230.512 20.193C229.761 21.118 229.285 22.5462 229.085 24.477H225.992C226.192 22.7271 226.657 21.269 227.388 20.1025C228.119 18.936 229.065 18.1713 230.226 17.8094V17.7186C229.225 17.6183 228.389 17.2962 227.719 16.7533C227.048 16.2104 226.713 15.3556 226.713 14.1888C226.713 13.4851 226.858 12.8763 227.148 12.3634C227.438 11.8506 227.839 11.4282 228.349 11.0963C228.86 10.7645 229.476 10.5185 230.196 10.3571C230.917 10.1964 231.708 10.1157 232.569 10.1157H238.545V24.477H235.782V18.8047H233.71Z" fill="#585858"/>
</svg>
