<svg width="314" height="67" viewBox="0 0 314 67" fill="none" xmlns="http://www.w3.org/2000/svg">
<path fill-rule="evenodd" clip-rule="evenodd" d="M127.768 34.705L127.795 34.5906C127.956 33.9234 128.224 33.291 128.593 32.7139C128.956 32.1478 129.406 31.6467 129.931 31.2273C130.46 30.8044 131.05 30.4742 131.685 30.2471C132.342 30.0129 133.032 29.8932 133.738 29.8918C135.039 29.8946 136.284 30.3783 137.243 31.2528C138.197 32.1227 138.795 33.3148 138.927 34.6031L138.937 34.705H127.768ZM137.033 27.4833C136.027 27.0555 134.957 26.8479 133.855 26.8325H133.81C132.581 26.8479 131.389 27.0792 130.267 27.5549C129.177 28.0165 128.197 28.6782 127.355 29.5205C126.514 30.3626 125.851 31.3442 125.387 32.4378C124.907 33.5688 124.66 34.7724 124.654 36.0136V36.0174V36.023L124.652 36.0241L124.649 36.0366V36.0377L124.652 36.0593C124.658 37.3187 124.908 38.5397 125.392 39.6885C125.86 40.7982 126.529 41.7969 127.378 42.6553C128.228 43.5134 129.217 44.19 130.319 44.6667C131.459 45.1598 132.671 45.417 133.922 45.4309L133.959 45.4313H133.966L133.991 45.4292L134.008 45.4278H134.01L134.027 45.4292C135.405 45.4138 136.726 45.1029 137.954 44.5045C139.112 43.9384 140.126 43.1498 140.967 42.1574L138.659 40.2985C138.088 40.965 137.407 41.4923 136.634 41.8733C135.8 42.2847 134.905 42.5032 133.973 42.5032H133.971C133.252 42.5032 132.547 42.3737 131.877 42.134C131.229 41.9019 130.625 41.569 130.082 41.1415C129.544 40.7186 129.08 40.2154 128.7 39.6449C128.315 39.0652 128.028 38.4298 127.846 37.7584L127.815 37.6439H142.029L142.047 35.0913C142.047 33.976 141.83 32.8953 141.402 31.8774C140.989 30.8937 140.398 30.0105 139.644 29.2525C138.89 28.4946 138.011 27.8993 137.033 27.4833Z" fill="#3A3A3A"/>
<path fill-rule="evenodd" clip-rule="evenodd" d="M109.359 36.3978C109.359 39.7813 106.629 42.5241 103.261 42.5241C99.8938 42.5241 97.1644 39.7813 97.1644 36.3978C97.1644 36.3176 97.1658 36.2373 97.1689 36.1577C97.1658 36.0778 97.1644 35.9976 97.1644 35.9173C97.1644 32.5338 99.8938 29.791 103.261 29.791C106.629 29.791 109.359 32.5338 109.359 35.9173C109.359 35.9976 109.357 36.0778 109.354 36.1577C109.357 36.2373 109.359 36.3176 109.359 36.3978ZM103.257 26.8301C98.1703 26.8301 94.0324 30.9419 93.9858 36.0415V54.1123H97.1022V42.5496C98.6597 44.197 100.799 45.2757 103.192 45.4414C103.213 45.4414 103.235 45.4418 103.255 45.4418C108.371 45.4418 112.519 41.277 112.519 36.1371C112.519 31.2458 108.763 27.2373 103.99 26.8618C103.961 26.8597 103.814 26.8482 103.8 26.8472C103.62 26.8367 103.439 26.8301 103.257 26.8301Z" fill="#3A3A3A"/>
<path fill-rule="evenodd" clip-rule="evenodd" d="M61.8091 41.7126V34.1126H71.8116V31.0753H61.8091V23.6362H73.0676V20.438H58.6254V44.9115H73.9436V41.7126H61.8091Z" fill="#3A3A3A"/>
<path fill-rule="evenodd" clip-rule="evenodd" d="M92.6107 27.335H88.9216L83.9806 33.776L79.0393 27.335H75.3505L82.0924 36.1231L75.3505 44.9113H79.0393L83.9806 38.4702L88.9216 44.9113H92.6107L85.8688 36.1231L92.6107 27.335Z" fill="#3A3A3A"/>
<path fill-rule="evenodd" clip-rule="evenodd" d="M155.338 36.1166C154.811 35.7132 154.196 35.3918 153.493 35.1524C152.79 34.9134 152.05 34.7179 151.271 34.5665C150.694 34.466 150.136 34.3393 149.596 34.1886C149.056 34.0375 148.579 33.8616 148.165 33.6599C147.75 33.4582 147.423 33.2251 147.186 32.9599C146.947 32.6957 146.828 32.3743 146.828 31.9961C146.828 31.5927 146.935 31.2336 147.148 30.9188C147.361 30.6037 147.632 30.3458 147.957 30.1441C148.283 29.9424 148.653 29.7913 149.067 29.6901C149.481 29.5896 149.89 29.5394 150.291 29.5394C150.368 29.5394 150.445 29.5408 150.52 29.5439C152.041 29.598 153.384 30.3772 154.204 31.5469L156.531 29.9714C155.201 28.0647 153.005 26.8308 150.52 26.8301C149.654 26.8301 148.853 26.9438 148.075 27.1703C147.298 27.3971 146.596 27.7252 145.968 28.1533C145.342 28.5815 144.84 29.1231 144.464 29.7784C144.088 30.4341 143.9 31.19 143.9 32.0467C143.9 32.9539 144.069 33.6969 144.408 34.2765C144.746 34.8565 145.198 35.329 145.763 35.694C146.327 36.0597 146.986 36.3559 147.738 36.5828C148.491 36.8092 149.281 37.0109 150.109 37.1872C150.586 37.288 151.05 37.4018 151.502 37.5274C151.953 37.6534 152.355 37.8244 152.706 38.0379C153.057 38.2522 153.34 38.5108 153.553 38.813C153.766 39.1152 153.873 39.5056 153.873 39.9848C153.873 40.4632 153.76 40.8725 153.535 41.2127C153.309 41.5537 153.009 41.837 152.633 42.0635C152.256 42.2903 151.837 42.454 151.375 42.5545C150.948 42.6477 150.528 42.6972 150.113 42.7049C148.213 42.7028 146.554 41.7941 145.536 40.3948L143.179 42.2352C144.849 44.1803 147.33 45.4181 150.094 45.4233C150.947 45.4058 151.763 45.3053 152.567 45.1127C153.406 44.9114 154.163 44.5896 154.828 44.1492C155.492 43.7082 156.028 43.1345 156.429 42.4292C156.83 41.7236 157.032 40.8662 157.032 39.8584C157.032 38.9763 156.882 38.2326 156.581 37.6279C156.28 37.0239 155.866 36.5196 155.338 36.1166Z" fill="#3A3A3A"/>
<path fill-rule="evenodd" clip-rule="evenodd" d="M171.736 37.6287C171.435 37.0243 171.021 36.5201 170.494 36.1171C169.966 35.7137 169.351 35.3923 168.648 35.1532C167.945 34.9135 167.205 34.7184 166.427 34.567C165.849 34.4661 165.29 34.3398 164.751 34.1891C164.211 34.0376 163.734 33.8617 163.32 33.6597C162.906 33.4583 162.579 33.2256 162.34 32.9607C162.102 32.6959 161.983 32.3748 161.983 31.9965C161.983 31.5932 162.09 31.2341 162.303 30.9193C162.516 30.6046 162.786 30.3456 163.112 30.1443C163.439 29.9426 163.809 29.7918 164.223 29.6906C164.637 29.5901 165.045 29.5392 165.447 29.5392C165.524 29.5392 165.6 29.5413 165.676 29.5444C167.196 29.5989 168.539 30.3777 169.359 31.5471L169.362 31.5394L171.686 29.9722L171.677 29.9649L171.686 29.9593C170.356 28.0655 168.16 26.8306 165.676 26.8306H165.638C164.81 26.8306 164.008 26.9443 163.23 27.1711C162.453 27.3976 161.751 27.7253 161.124 28.1538C160.497 28.582 159.995 29.1232 159.619 29.7789C159.243 30.4343 159.055 31.1905 159.055 32.0468C159.055 32.9544 159.224 33.6974 159.563 34.277C159.902 34.857 160.353 35.3295 160.918 35.6945C161.482 36.0602 162.141 36.3564 162.894 36.5829C163.646 36.8097 164.437 37.0114 165.265 37.1877C165.741 37.2885 166.205 37.4023 166.657 37.5279C167.108 37.6539 167.51 37.8242 167.861 38.0384C168.213 38.2527 168.495 38.5113 168.708 38.8138C168.921 39.1156 169.028 39.5065 169.028 39.9846C169.028 40.4637 168.915 40.873 168.689 41.2132C168.464 41.5535 168.164 41.8375 167.788 42.064C167.412 42.2905 166.993 42.4545 166.53 42.555C166.103 42.6482 165.683 42.6977 165.268 42.705L165.267 42.7008H165.237L165.234 42.7047L165.233 42.7036C163.369 42.7036 161.71 41.7946 160.691 40.3953L158.334 42.235C160.004 44.1808 162.485 45.4185 165.249 45.4238V45.4147C166.102 45.4063 166.919 45.3058 167.722 45.1136C168.562 44.9112 169.318 44.5901 169.983 44.149C170.647 43.7086 171.182 43.135 171.584 42.4297C171.985 41.7241 172.187 40.8667 172.187 39.8589C172.187 38.9764 172.038 38.2335 171.736 37.6287Z" fill="#3A3A3A"/>
<path fill-rule="evenodd" clip-rule="evenodd" d="M117.902 27.2911H114.786V35.6752C114.786 35.8095 114.781 35.948 114.781 36.0838L114.786 44.9117H117.902V36.0939C117.906 32.6814 120.651 29.9187 124.032 29.9149V26.7739C121.695 26.776 119.549 27.6582 117.902 29.1102V27.2911Z" fill="#3A3A3A"/>
<mask id="mask0" mask-type="alpha" maskUnits="userSpaceOnUse" x="0" y="0" width="314" height="67">
<path d="M0 67H314V0H0V67Z" fill="white"/>
</mask>
<g mask="url(#mask0)">
<path fill-rule="evenodd" clip-rule="evenodd" d="M43.5515 44.9115H46.6679V20.438H43.5515V44.9115Z" fill="#3A3A3A"/>
<path fill-rule="evenodd" clip-rule="evenodd" d="M26.355 35.8128L30.7861 24.2079L35.2151 35.8128H26.355ZM32.3898 20.4224H29.1796L19.8277 44.9109H22.8808L25.1271 39.0327H36.4433L38.6899 44.9109H41.7424L32.3898 20.4224Z" fill="#3A3A3A"/>
<path fill-rule="evenodd" clip-rule="evenodd" d="M51.0632 44.9112H54.1792V27.4385H51.0632V44.9112Z" fill="#3A3A3A"/>
<path fill-rule="evenodd" clip-rule="evenodd" d="M52.6214 17.064C52.5467 17.064 52.4863 17.125 52.4863 17.2008C52.4863 19.7237 50.4554 21.7773 47.959 21.7773C47.884 21.7773 47.8235 21.8381 47.8235 21.9138C47.8235 21.9892 47.884 22.0506 47.959 22.0506C50.4554 22.0506 52.4863 24.1035 52.4863 26.6265C52.4863 26.7022 52.5467 26.7633 52.6214 26.7633H52.6218C52.6964 26.7633 52.7569 26.7029 52.7569 26.6272C52.7656 24.1126 54.7965 22.0666 57.2842 22.0666C57.3589 22.0666 57.4196 22.0052 57.4196 21.9302C57.4196 21.8545 57.3589 21.7931 57.2842 21.7931C54.7878 21.7931 52.7569 19.7401 52.7569 17.2137V17.2011C52.7576 17.1652 52.743 17.1299 52.7176 17.1041C52.6923 17.0786 52.6575 17.064 52.6214 17.064Z" fill="#3A3A3A"/>
<path fill-rule="evenodd" clip-rule="evenodd" d="M194.375 31.456H198.113C199.828 31.456 201.17 31.1228 202.142 30.4563C203.114 29.7901 203.6 28.7673 203.6 27.3886C203.6 25.9641 203.108 24.9413 202.125 24.3205C201.141 23.7001 199.816 23.3895 198.147 23.3895H194.375V31.456ZM191.095 20.6094H198.441C199.693 20.6094 200.843 20.7413 201.891 21.004C202.939 21.2675 203.839 21.6733 204.59 22.2226C205.342 22.7719 205.923 23.4701 206.333 24.3164C206.743 25.1633 206.948 26.17 206.948 27.3369C206.948 28.5042 206.73 29.5165 206.296 30.3746C205.862 31.2327 205.263 31.9425 204.498 32.5029C203.733 33.0637 202.82 33.481 201.757 33.7557C200.695 34.0303 199.548 34.1678 198.314 34.1678H194.375V44.9115H191.095V20.6094Z" fill="#3A3A3A"/>
<path fill-rule="evenodd" clip-rule="evenodd" d="M220.671 36.7419C220.671 35.9229 220.54 35.1552 220.278 34.4384C220.016 33.722 219.646 33.0967 219.168 32.5617C218.689 32.0271 218.109 31.6063 217.425 31.2988C216.742 30.9921 215.967 30.8382 215.102 30.8382C214.236 30.8382 213.462 30.9921 212.779 31.2988C212.096 31.6063 211.515 32.0271 211.036 32.5617C210.558 33.0967 210.193 33.722 209.943 34.4384C209.692 35.1552 209.567 35.9229 209.567 36.7419C209.567 37.5382 209.692 38.2951 209.943 39.0119C210.193 39.7283 210.558 40.3543 211.036 40.8886C211.515 41.4228 212.096 41.8496 212.779 42.1682C213.462 42.4864 214.236 42.6459 215.102 42.6459C215.967 42.6459 216.742 42.4864 217.425 42.1682C218.109 41.8496 218.689 41.4228 219.168 40.8886C219.646 40.3543 220.016 39.7283 220.278 39.0119C220.54 38.2951 220.671 37.5382 220.671 36.7419ZM223.883 36.7419C223.883 38.0006 223.661 39.1563 223.216 40.2091C222.772 41.2616 222.157 42.1713 221.372 42.9377C220.586 43.7043 219.657 44.2993 218.587 44.7226C217.516 45.1455 216.354 45.3573 215.102 45.3573C213.849 45.3573 212.693 45.1455 211.634 44.7226C210.575 44.2993 209.653 43.7043 208.867 42.9377C208.081 42.1713 207.466 41.2616 207.022 40.2091C206.578 39.1563 206.356 38.0006 206.356 36.7419C206.356 35.4839 206.578 34.3282 207.022 33.275C207.466 32.2229 208.081 31.3132 208.867 30.5465C209.653 29.7798 210.575 29.1852 211.634 28.7616C212.693 28.3383 213.849 28.1265 215.102 28.1265C216.354 28.1265 217.516 28.3383 218.587 28.7616C219.657 29.1852 220.586 29.7798 221.372 30.5465C222.157 31.3132 222.772 32.2229 223.216 33.275C223.661 34.3282 223.883 35.4839 223.883 36.7419Z" fill="#3A3A3A"/>
<path fill-rule="evenodd" clip-rule="evenodd" d="M238.397 32.7603C238.032 32.1887 237.502 31.7253 236.808 31.3704C236.113 31.0155 235.367 30.8382 234.57 30.8382C233.727 30.8382 232.964 30.9921 232.281 31.2988C231.598 31.6063 231.017 32.0212 230.538 32.5446C230.06 33.0681 229.69 33.6937 229.428 34.4213C229.166 35.1496 229.035 35.9229 229.035 36.7419C229.035 37.5616 229.166 38.3349 229.428 39.0628C229.69 39.7907 230.06 40.4161 230.538 40.9395C231.017 41.463 231.598 41.8786 232.281 42.1853C232.964 42.4927 233.727 42.6459 234.57 42.6459C235.458 42.6459 236.238 42.4742 236.911 42.1312C237.582 41.7878 238.135 41.3307 238.567 40.7581L240.686 42.6808C239.98 43.4925 239.12 44.1412 238.106 44.6277C237.093 45.1141 235.903 45.3577 234.536 45.3577C233.237 45.3577 232.047 45.1455 230.965 44.7226C229.883 44.2993 228.961 43.7043 228.198 42.9376C227.435 42.1713 226.837 41.2616 226.404 40.2091C225.972 39.1563 225.755 38.0009 225.755 36.7419C225.755 35.4839 225.972 34.3282 226.404 33.2753C226.837 32.2229 227.435 31.3135 228.198 30.5465C228.961 29.7798 229.883 29.1852 230.965 28.7616C232.047 28.3383 233.237 28.1265 234.536 28.1265C235.652 28.1265 236.768 28.3589 237.884 28.8223C239 29.2854 239.9 29.9574 240.583 30.8382L238.397 32.7603Z" fill="#3A3A3A"/>
<path fill-rule="evenodd" clip-rule="evenodd" d="M254.414 32.7603C254.049 32.1887 253.52 31.7253 252.825 31.3704C252.13 31.0155 251.384 30.8382 250.587 30.8382C249.744 30.8382 248.981 30.9921 248.298 31.2988C247.615 31.6063 247.034 32.0212 246.556 32.5446C246.077 33.0681 245.707 33.6937 245.445 34.4213C245.183 35.1496 245.052 35.9229 245.052 36.7419C245.052 37.5616 245.183 38.3349 245.445 39.0628C245.707 39.7907 246.077 40.4161 246.556 40.9395C247.034 41.463 247.615 41.8786 248.298 42.1853C248.981 42.4927 249.744 42.6459 250.587 42.6459C251.475 42.6459 252.255 42.4742 252.927 42.1312C253.599 41.7878 254.152 41.3307 254.585 40.7581L256.703 42.6808C255.997 43.4925 255.136 44.1412 254.123 44.6277C253.109 45.1141 251.919 45.3577 250.553 45.3577C249.255 45.3577 248.064 45.1455 246.983 44.7226C245.901 44.2993 244.978 43.7043 244.215 42.9376C243.452 42.1713 242.854 41.2616 242.422 40.2091C241.989 39.1563 241.772 38.0009 241.772 36.7419C241.772 35.4839 241.989 34.3282 242.422 33.2753C242.854 32.2229 243.452 31.3135 244.215 30.5465C244.978 29.7798 245.901 29.1852 246.983 28.7616C248.064 28.3383 249.255 28.1265 250.553 28.1265C251.669 28.1265 252.785 28.3589 253.901 28.8223C255.017 29.2854 255.917 29.9574 256.6 30.8382L254.414 32.7603Z" fill="#3A3A3A"/>
<path fill-rule="evenodd" clip-rule="evenodd" d="M271.428 32.6573L262.203 44.9113H258.991V28.5728H262.203V40.4838L271.428 28.5728H274.64V44.9113H271.428V32.6573Z" fill="#3A3A3A"/>
<path fill-rule="evenodd" clip-rule="evenodd" d="M280.966 33.5841C280.966 34.0647 281.074 34.4541 281.291 34.7511C281.507 35.0487 281.797 35.278 282.162 35.4378C282.526 35.598 282.959 35.7069 283.46 35.7637C283.961 35.8213 284.496 35.8496 285.066 35.8496H288.073V31.2845H285.032C284.417 31.2845 283.858 31.3075 283.358 31.3529C282.856 31.3993 282.429 31.5023 282.076 31.6621C281.723 31.8223 281.45 32.0568 281.256 32.3656C281.062 32.6748 280.966 33.0813 280.966 33.5841ZM285.715 38.458C284.143 38.458 282.931 38.985 282.076 40.0374C281.222 41.0899 280.681 42.7146 280.453 44.9113H276.935C277.162 42.9205 277.691 41.2616 278.523 39.9345C279.354 38.6074 280.431 37.7374 281.752 37.3257V37.2224C280.612 37.1083 279.662 36.7419 278.899 36.1242C278.135 35.5066 277.754 34.534 277.754 33.2066C277.754 32.4061 277.919 31.7134 278.25 31.1299C278.58 30.5465 279.035 30.0659 279.616 29.6884C280.197 29.3108 280.898 29.0309 281.718 28.8474C282.538 28.6645 283.437 28.5728 284.417 28.5728H291.216V44.9113H288.073V38.458H285.715Z" fill="#3A3A3A"/>
</g>
</svg>
