<svg width="19" height="10" viewBox="0 0 19 10" fill="none" xmlns="http://www.w3.org/2000/svg">
<path d="M1.10041 5.06384C0.967563 4.94634 0.852411 4.84057 0.756196 4.74997C0.852411 4.65936 0.967563 4.55359 1.10041 4.43609C1.55385 4.03502 2.21086 3.49956 3.02212 2.96449C4.65326 1.88868 6.86283 0.844238 9.27216 0.844238C11.6815 0.844238 13.8911 1.88868 15.5222 2.96449C16.3335 3.49956 16.9905 4.03502 17.4439 4.43609C17.5767 4.55359 17.6919 4.65936 17.7881 4.74997C17.6919 4.84057 17.5767 4.94634 17.4439 5.06384C16.9905 5.46491 16.3335 6.00038 15.5222 6.53544C13.8911 7.61126 11.6815 8.6557 9.27216 8.6557C6.86283 8.6557 4.65326 7.61126 3.02212 6.53544C2.21086 6.00038 1.55385 5.46491 1.10041 5.06384Z" fill="white" stroke="black"/>
<circle cx="9.27246" cy="4.68555" r="2" fill="white" stroke="black"/>
</svg>
