<svg width="14" height="8" viewBox="0 0 14 8" fill="none" xmlns="http://www.w3.org/2000/svg">
<path d="M6.99051 2.14368C8.47509 2.14368 9.65251 3.32111 9.65251 4.80568C9.65251 6.29026 8.47509 7.51887 6.99051 7.51887C5.50593 7.51887 4.32851 6.29026 4.32851 4.80568C4.32851 3.32111 5.50593 2.14368 6.99051 2.14368ZM6.99051 3.16753C6.06905 3.16753 5.35236 3.88422 5.35236 4.80568C5.35236 5.72714 6.06905 6.49503 6.99051 6.49503C7.91197 6.49503 8.62866 5.72714 8.62866 4.80568C8.62866 3.88422 7.91197 3.16753 6.99051 3.16753Z" fill="#3A3A3A"/>
<path d="M0.796365 3.11637C0.23325 3.47472 -0.329865 2.60445 0.23325 2.2461C4.68698 -0.72305 9.29428 -0.774242 13.7992 2.2461C14.3111 2.60445 13.748 3.47472 13.1849 3.06518C9.08951 0.300796 4.94294 0.351988 0.796365 3.11637Z" fill="#3A3A3A"/>
</svg>
