<svg width="164" height="50" viewBox="0 0 164 50" fill="none" xmlns="http://www.w3.org/2000/svg">
<path d="M45.5185 17.0924L45.5169 17.0328L45.1014 17.0317L45.0986 17.0901C45.0957 17.1459 44.813 22.6975 44.7166 24.3083C44.3009 31.2631 42.8271 32.8113 40.4218 33.1347L40.369 33.1418V36.0603H40.4299C42.006 36.0592 43.1966 35.6225 44.0699 34.7254C45.3125 33.4489 45.8759 31.2695 45.7917 28.0629C45.7098 24.9341 45.5203 17.1704 45.5185 17.0924" fill="#3A3A3A"/>
<path d="M44.9977 15.9752L55.6443 15.5749V36.0667H58.2997V14.1953L44.9977 14.1909V15.9752Z" fill="#3A3A3A"/>
<path d="M70.6168 14.1907L60.229 36.0518H62.9231L65.8696 28.691L75.2482 28.3122L75.2498 27.8454L66.3532 27.4891L71.2952 15.8656L79.8621 36.0292L79.8779 36.0667L82.9335 36.0523L73.3723 14.1763L70.6168 14.1907Z" fill="#3A3A3A"/>
<path d="M87.4862 14.1914H84.8308V36.0665H87.4862V14.1914Z" fill="#3A3A3A"/>
<path d="M149.632 14.1919H146.976V36.0667H149.632V14.1919Z" fill="#3A3A3A"/>
<path d="M133.493 14.1919H130.815V36.0667H133.493V25.915L145.833 25.3553V24.9376L133.493 24.4611V14.1919Z" fill="#3A3A3A"/>
<path d="M101.885 14.1919H98.9624L88.2247 26.7873L88.5365 27.0795L91.3631 24.7137L100.7 36.0445L100.718 36.067L103.904 36.0574L93.3031 23.1199L101.885 14.1919Z" fill="#3A3A3A"/>
<path d="M35.658 16.7433C33.6403 15.2163 30.9528 14.3366 28.2776 14.3259L28.5965 10.9199H25.1905L26.628 25.0575L25.5454 35.5229L25.4802 35.5109C22.9475 35.0459 20.8737 33.803 19.3161 31.8162C17.8009 29.8837 17.0007 27.3832 17.0017 24.5852C17.0026 22.15 17.6996 19.9329 19.017 18.1738C20.296 16.4579 22.1457 15.2551 24.233 14.7824L24.2827 14.7707L24.2667 14.4625L24.2084 14.4627C22.74 14.4657 20.2329 15.1058 17.9995 16.8994C16.2588 18.2976 14.1835 20.8446 14.1835 25.0384C14.1835 28.6164 15.5478 31.5402 18.1288 33.4936C20.1423 35.0173 22.8225 35.8966 25.5033 35.9109L25.1901 39.3017H28.5963L27.1509 25.0525L28.2403 14.7138L28.3068 14.7261C30.8394 15.191 32.9134 16.4339 34.4708 18.4204C35.986 20.3532 36.7864 22.8538 36.7852 25.6516C36.7842 28.087 36.0873 30.304 34.77 32.063C33.491 33.779 31.6411 34.9818 29.5537 35.4545L29.5042 35.4662L29.5203 35.7744L29.5784 35.7743C31.0469 35.7712 33.5541 35.1311 35.7874 33.3373C37.5283 31.9392 39.6035 29.3923 39.6035 25.1986C39.6035 21.6205 38.239 18.6968 35.658 16.7433" fill="#3A3A3A"/>
<path d="M115.813 36.2698C112.235 36.2619 109.975 34.1105 108.72 32.3515C107.113 30.0999 106.19 27.0578 106.188 24.0056C106.183 19.2593 108.902 15.0892 112.675 14.1489L112.601 13.6821C109.974 14.2365 107.608 15.6535 105.88 17.7075C104.143 19.7799 103.188 22.3965 103.183 25.1007C103.183 28.3224 104.426 31.2925 106.683 33.4637C108.908 35.6043 111.908 36.7831 115.13 36.7831C115.583 36.7827 116.035 36.7574 116.485 36.7075L116.411 36.2411C116.256 36.2523 115.884 36.2698 115.813 36.2698Z" fill="#3A3A3A"/>
<path d="M114.483 13.9316C118.061 13.9396 120.321 16.091 121.576 17.85C123.182 20.1017 124.105 23.1437 124.108 26.1959C124.113 30.9423 121.393 35.1122 117.62 36.0526L117.694 36.5195C120.321 35.9652 122.687 34.5482 124.416 32.494C126.153 30.4216 127.108 27.805 127.113 25.1007C127.113 21.8792 125.87 18.9091 123.613 16.7379C121.388 14.5972 118.388 13.4185 115.166 13.4185C114.713 13.4188 114.26 13.444 113.81 13.494L113.885 13.9605C114.04 13.9492 114.412 13.9316 114.483 13.9316" fill="#3A3A3A"/>
</svg>
