<svg width="66" height="66" viewBox="0 0 66 66" fill="none" xmlns="http://www.w3.org/2000/svg">
<path d="M65.3333 65.3333H0V0H65.3333V65.3333ZM0.752711 64.5806H64.5806V0.752711H0.752711V64.5806Z" fill="#3A3A3A"/>
<path d="M6.98885 18.7956V7.49393C6.98934 7.24569 7.08831 7.00779 7.26401 6.83243C7.43972 6.65708 7.67782 6.55859 7.92606 6.55859C8.1743 6.55859 8.4124 6.65708 8.5881 6.83243C8.76381 7.00779 8.86278 7.24569 8.86327 7.49393V17.8584H15.1849C15.433 17.859 15.6708 17.958 15.8461 18.1337C16.0214 18.3094 16.1198 18.5475 16.1198 18.7956C16.1198 19.0438 16.0214 19.2818 15.8461 19.4575C15.6708 19.6332 15.433 19.7322 15.1849 19.7328H7.92606C7.67781 19.7318 7.44003 19.6327 7.2645 19.4572C7.08896 19.2816 6.98988 19.0439 6.98885 18.7956V18.7956Z" fill="#3A3A3A"/>
<path d="M49.4384 9.55208V18.7956C49.4437 19.0382 49.3584 19.2741 49.1991 19.4571C49.1301 19.5432 49.0427 19.6126 48.9433 19.6603C48.8439 19.708 48.735 19.7328 48.6248 19.7328C48.5145 19.7328 48.4056 19.708 48.3062 19.6603C48.2068 19.6126 48.1194 19.5432 48.0504 19.4571C47.8911 19.2741 47.8058 19.0382 47.8111 18.7956V7.49388C47.8058 7.25128 47.8911 7.0154 48.0504 6.83232C48.1194 6.74629 48.2068 6.67686 48.3062 6.62915C48.4056 6.58144 48.5145 6.55667 48.6248 6.55667C48.735 6.55667 48.8439 6.58144 48.9433 6.62915C49.0427 6.67686 49.1301 6.74629 49.1991 6.83232C49.2262 6.86371 49.2502 6.89754 49.271 6.93339L53.3951 11.16L57.6467 6.79557L57.6548 6.80476C57.7215 6.72617 57.8047 6.66321 57.8984 6.62034C57.9922 6.57747 58.0942 6.55573 58.1973 6.55667C58.3076 6.55664 58.4164 6.5814 58.5158 6.62912C58.6152 6.67683 58.7026 6.74628 58.7716 6.83232C58.9309 7.0154 59.0162 7.25128 59.0108 7.49388V18.7956C59.0162 19.0382 58.9309 19.2741 58.7716 19.4571C58.7026 19.5432 58.6152 19.6126 58.5158 19.6603C58.4163 19.708 58.3075 19.7328 58.1972 19.7328C58.0869 19.7328 57.9781 19.708 57.8787 19.6603C57.7793 19.6126 57.6918 19.5432 57.6228 19.4571C57.4636 19.2741 57.3782 19.0382 57.3836 18.7956V9.52451L53.9295 13.0712C53.8607 13.1438 53.7778 13.2016 53.6859 13.2411C53.594 13.2805 53.4951 13.3009 53.3951 13.3009C53.177 13.3009 51.8581 12.0513 49.4384 9.55208Z" fill="#3A3A3A"/>
<path d="M28.0633 7.47549C28.064 7.29379 28.1184 7.11635 28.2196 6.96544C28.3208 6.81452 28.4643 6.69685 28.6321 6.62717C28.7999 6.55749 28.9846 6.53892 29.1629 6.57378C29.3412 6.60864 29.5053 6.69537 29.6345 6.82311C29.7052 6.89281 29.7642 6.97348 29.8091 7.06201L32.6575 11.2243L35.5702 6.96094C35.6066 6.91218 35.6465 6.86611 35.6896 6.82312C35.7749 6.73823 35.8761 6.67099 35.9875 6.62527C36.0988 6.57955 36.218 6.55623 36.3384 6.55666C36.4587 6.55709 36.5778 6.58125 36.6888 6.62776C36.7998 6.67427 36.9005 6.74222 36.9852 6.82771C37.071 6.91212 37.1389 7.01303 37.1847 7.12435C37.2305 7.23568 37.2533 7.35513 37.2517 7.47549C37.2565 7.69532 37.1777 7.90878 37.0311 8.07274L33.5763 13.1263V18.8139C33.5765 18.9347 33.5528 19.0543 33.5068 19.166C33.4607 19.2776 33.393 19.379 33.3077 19.4645C33.2223 19.55 33.121 19.6178 33.0094 19.664C32.8978 19.7103 32.7782 19.7341 32.6575 19.7341C32.5367 19.7341 32.4171 19.7103 32.3055 19.664C32.194 19.6178 32.0926 19.55 32.0073 19.4645C31.922 19.379 31.8543 19.2776 31.8082 19.166C31.7621 19.0543 31.7385 18.9347 31.7386 18.8139V13.1355L28.2195 7.99922C28.1149 7.84481 28.0604 7.66196 28.0633 7.47549Z" fill="#3A3A3A"/>
<path d="M12.016 25.9744C12.0595 26.0164 12.0939 26.0668 12.1171 26.1225C12.1403 26.1783 12.1519 26.2382 12.1511 26.2986V31.8364C12.1507 31.958 12.1022 32.0745 12.0161 32.1603C11.93 32.2461 11.8134 32.2943 11.6918 32.2943C11.5703 32.2943 11.4536 32.2461 11.3676 32.1603C11.2815 32.0745 11.2329 31.958 11.2326 31.8364V26.2986C11.2324 26.2078 11.2593 26.1189 11.3097 26.0434C11.3601 25.9678 11.4318 25.9089 11.5157 25.8742C11.5997 25.8395 11.692 25.8304 11.7811 25.8483C11.8702 25.8661 11.9519 25.91 12.016 25.9744Z" fill="#3A3A3A"/>
<path d="M13.1033 36.4423L13.0988 36.4468C12.7025 36.1356 12.2113 35.9703 11.7075 35.9785C11.3274 35.9782 10.9531 36.0716 10.6177 36.2506C10.2824 36.4296 9.99642 36.6886 9.78517 37.0046C9.57392 37.3207 9.44393 37.6839 9.40674 38.0622C9.36955 38.4405 9.4263 38.8222 9.57196 39.1733C9.71762 39.5244 9.94768 39.8341 10.2417 40.075C10.5358 40.3159 10.8848 40.4804 11.2577 40.5541C11.6306 40.6278 12.0159 40.6083 12.3795 40.4973C12.7431 40.3864 13.0736 40.1874 13.3419 39.9181C13.759 39.5009 13.9676 39.1542 13.9677 38.878C13.9677 38.8569 13.9662 38.8359 13.9632 38.815H12.68C12.5585 38.8146 12.442 38.7661 12.3562 38.68C12.2703 38.5939 12.2221 38.4773 12.2221 38.3557C12.2221 38.2342 12.2703 38.1176 12.3562 38.0315C12.442 37.9454 12.5585 37.8969 12.68 37.8965H14.481C14.6026 37.897 14.7191 37.9456 14.8051 38.0316C14.8911 38.1176 14.9397 38.2341 14.9402 38.3557C14.9406 38.7701 14.8566 39.1803 14.6933 39.5611C14.53 39.942 14.2907 40.2856 13.9902 40.5709C13.5481 41.0114 12.9878 41.3143 12.377 41.4427C11.7663 41.5712 11.1314 41.5197 10.5493 41.2945C9.96724 41.0694 9.46298 40.6802 9.09766 40.1742C8.73233 39.6682 8.52164 39.067 8.49112 38.4437C8.4606 37.8203 8.61156 37.2015 8.9257 36.6622C9.23983 36.1229 9.70366 35.6864 10.261 35.4054C10.8182 35.1245 11.4451 35.0112 12.0654 35.0794C12.6858 35.1475 13.2731 35.3942 13.7561 35.7894L13.7516 35.7939C13.7545 35.797 13.7576 35.8 13.7606 35.8029C13.8033 35.8455 13.8373 35.896 13.8605 35.9517C13.8836 36.0074 13.8956 36.067 13.8957 36.1273C13.8958 36.1877 13.884 36.2474 13.8609 36.3031C13.8379 36.3588 13.8041 36.4095 13.7614 36.4521C13.7188 36.4947 13.6681 36.5286 13.6124 36.5516C13.5567 36.5746 13.497 36.5865 13.4367 36.5864C13.3764 36.5863 13.3167 36.5743 13.261 36.5511C13.2053 36.528 13.1548 36.494 13.1123 36.4513C13.1092 36.4483 13.1062 36.4453 13.1033 36.4423Z" fill="#3A3A3A"/>
<path d="M8.98586 44.7397C8.9862 44.6181 9.03474 44.5016 9.12083 44.4158C9.20691 44.3299 9.32352 44.2817 9.44509 44.2817C9.56666 44.2817 9.68327 44.3299 9.76935 44.4158C9.85544 44.5016 9.90398 44.6181 9.90432 44.7397V46.2164H13.4882V44.7397C13.4885 44.6181 13.537 44.5016 13.6231 44.4158C13.7092 44.3299 13.8258 44.2817 13.9474 44.2817C14.069 44.2817 14.1856 44.3299 14.2717 44.4158C14.3577 44.5016 14.4063 44.6181 14.4066 44.7397V50.2775C14.4063 50.3991 14.3577 50.5155 14.2717 50.6014C14.1856 50.6872 14.069 50.7354 13.9474 50.7354C13.8258 50.7354 13.7092 50.6872 13.6231 50.6014C13.537 50.5155 13.4885 50.3991 13.4882 50.2775V47.1349H9.90432V50.2775C9.90398 50.3991 9.85544 50.5155 9.76935 50.6014C9.68327 50.6872 9.56666 50.7354 9.44509 50.7354C9.32352 50.7354 9.20691 50.6872 9.12083 50.6014C9.03474 50.5155 8.9862 50.3991 8.98586 50.2775V44.7397Z" fill="#3A3A3A"/>
<path d="M12.1488 54.4019V59.4985C12.1484 59.62 12.0999 59.7365 12.0138 59.8224C11.9277 59.9082 11.8111 59.9564 11.6895 59.9564C11.568 59.9564 11.4513 59.9082 11.3653 59.8224C11.2792 59.7365 11.2306 59.62 11.2303 59.4985V54.4019H9.8886C9.76704 54.4015 9.65057 54.353 9.56473 54.2669C9.47889 54.1808 9.43068 54.0642 9.43068 53.9426C9.43068 53.8211 9.47889 53.7045 9.56473 53.6184C9.65057 53.5323 9.76704 53.4837 9.8886 53.4834H13.4724C13.594 53.4837 13.7105 53.5323 13.7963 53.6184C13.8822 53.7045 13.9304 53.8211 13.9304 53.9426C13.9304 54.0642 13.8822 54.1808 13.7963 54.2669C13.7105 54.353 13.594 54.4015 13.4724 54.4019H12.1488Z" fill="#3A3A3A"/>
<path d="M34.9719 26.8472C35.5 27.3753 35.8287 28.0702 35.9019 28.8135C35.9751 29.5568 35.7883 30.3024 35.3734 30.9234C34.9585 31.5445 34.3411 32.0024 33.6264 32.2192C32.9117 32.436 32.1439 32.3983 31.4539 32.1125C30.7638 31.8267 30.1943 31.3105 29.8422 30.6519C29.4901 29.9932 29.3773 29.2328 29.523 28.5003C29.6686 27.7678 30.0638 27.1084 30.6411 26.6346C31.2185 26.1608 31.9422 25.9018 32.6891 25.9018C33.114 25.895 33.5358 25.9755 33.9284 26.1381C34.321 26.3007 34.6761 26.5421 34.9719 26.8472ZM32.6891 26.8202C32.1537 26.8194 31.6347 27.0043 31.2204 27.3434C30.8061 27.6824 30.5223 28.1547 30.4172 28.6796C30.3122 29.2046 30.3924 29.7497 30.6444 30.2221C30.8963 30.6944 31.3042 31.0648 31.7987 31.2701C32.2931 31.4753 32.8434 31.5027 33.3558 31.3476C33.8682 31.1925 34.3109 30.8645 34.6085 30.4195C34.9061 29.9745 35.0401 29.44 34.9878 28.9072C34.9354 28.3744 34.6999 27.8763 34.3213 27.4978C34.11 27.2792 33.8562 27.1063 33.5754 26.9898C33.2947 26.8733 32.993 26.8155 32.6891 26.8202Z" fill="#3A3A3A"/>
<path d="M32.6306 46.0955C32.0442 46.0795 31.4857 45.8413 31.0682 45.4291C30.8588 45.2257 30.6926 44.9821 30.5796 44.7129C30.4667 44.4436 30.4093 44.1543 30.411 43.8623V40.0984C30.4076 40.0357 30.4179 39.9729 30.4412 39.9146C30.4645 39.8563 30.5003 39.8038 30.5461 39.7607C30.6359 39.6823 30.751 39.6392 30.8702 39.6392C30.9894 39.6392 31.1045 39.6823 31.1943 39.7607C31.2395 39.8023 31.275 39.8533 31.2984 39.9101C31.3218 39.9668 31.3324 40.0281 31.3296 40.0894V43.8533C31.3296 43.8804 31.3281 43.9074 31.3252 43.9344C31.3398 44.2572 31.4784 44.562 31.7122 44.7852C31.8347 44.9117 31.9818 45.0117 32.1444 45.0791C32.3071 45.1464 32.4818 45.1798 32.6578 45.177H32.6758C32.8518 45.1798 33.0265 45.1464 33.1891 45.0791C33.3517 45.0117 33.4987 44.9117 33.6211 44.7852C33.855 44.562 33.9937 44.2573 34.0085 43.9344C34.0053 43.9075 34.0037 43.8804 34.0037 43.8533V40.0894C34.0009 40.0281 34.0116 39.9668 34.0349 39.9101C34.0583 39.8533 34.0938 39.8023 34.139 39.7607C34.2288 39.6823 34.344 39.6392 34.4632 39.6392C34.5824 39.6392 34.6975 39.6823 34.7873 39.7607C34.8331 39.8038 34.8688 39.8563 34.8921 39.9146C34.9154 39.973 34.9257 40.0357 34.9222 40.0984V43.8623C34.9239 44.1543 34.8666 44.4436 34.7537 44.7129C34.6408 44.9821 34.4746 45.2257 34.2651 45.4291C33.8476 45.8413 33.2891 46.0795 32.7027 46.0955H32.6306Z" fill="#3A3A3A"/>
<path d="M32.876 57.1041C32.7628 57.1223 32.6484 57.1313 32.5338 57.1311H31.1471V59.3732C31.1467 59.4948 31.0982 59.6113 31.0121 59.6971C30.926 59.783 30.8094 59.8312 30.6879 59.8312C30.5663 59.8312 30.4497 59.783 30.3636 59.6971C30.2775 59.6113 30.229 59.4948 30.2286 59.3732V53.8354C30.2291 53.7138 30.2777 53.5973 30.3637 53.5112C30.4497 53.4252 30.5662 53.3767 30.6879 53.3762L32.5338 53.3716C32.9055 53.3709 33.2691 53.4805 33.5785 53.6865C33.8878 53.8925 34.1292 54.1856 34.2718 54.5289C34.4145 54.8721 34.4522 55.2499 34.38 55.6146C34.3079 55.9792 34.1291 56.3142 33.8665 56.5772C33.8193 56.6248 33.7697 56.6699 33.718 56.7125L35.1181 59.1437C35.1586 59.2102 35.1804 59.2864 35.1812 59.3642C35.181 59.4069 35.175 59.4493 35.1631 59.4903C35.1483 59.5492 35.1215 59.6044 35.0843 59.6525C35.0471 59.7005 35.0004 59.7403 34.947 59.7694C34.8805 59.8099 34.8044 59.8317 34.7265 59.8325C34.6839 59.8324 34.6414 59.8263 34.6004 59.8145C34.542 59.7999 34.4871 59.7737 34.4391 59.7373C34.391 59.7009 34.3509 59.6551 34.3211 59.6028L32.876 57.1041ZM32.5338 54.2766H31.1471V56.2262H32.5338C32.6619 56.2264 32.7888 56.2013 32.9073 56.1524C33.0257 56.1035 33.1333 56.0317 33.224 55.9412C33.3146 55.8507 33.3865 55.7431 33.4356 55.6248C33.4847 55.5064 33.5099 55.3796 33.5099 55.2514C33.5099 55.1233 33.4847 54.9964 33.4356 54.8781C33.3865 54.7597 33.3146 54.6522 33.224 54.5617C33.1333 54.4711 33.0257 54.3994 32.9073 54.3505C32.7888 54.3015 32.6619 54.2765 32.5338 54.2766Z" fill="#3A3A3A"/>
<path d="M53.738 25.9744C53.7815 26.0164 53.8159 26.0668 53.8391 26.1225C53.8623 26.1783 53.8739 26.2382 53.8731 26.2986V31.8364C53.8727 31.958 53.8242 32.0745 53.7381 32.1603C53.652 32.2461 53.5354 32.2943 53.4138 32.2943C53.2923 32.2943 53.1756 32.2461 53.0896 32.1603C53.0035 32.0745 52.9549 31.958 52.9546 31.8364V26.2986C52.9544 26.2078 52.9813 26.1189 53.0317 26.0434C53.0821 25.9678 53.1538 25.9089 53.2377 25.8742C53.3217 25.8395 53.414 25.8304 53.5031 25.8483C53.5922 25.8661 53.6739 25.91 53.738 25.9744Z" fill="#3A3A3A"/>
<path d="M51.6263 41.3227V45.5728C51.626 45.6944 51.5774 45.8109 51.4913 45.8967C51.4053 45.9826 51.2886 46.0308 51.1671 46.0308C51.0455 46.0308 50.9289 45.9826 50.8428 45.8967C50.7567 45.8109 50.7082 45.6944 50.7078 45.5728V40.0349C50.7077 39.9441 50.7345 39.8553 50.7849 39.7797C50.8353 39.7041 50.9071 39.6452 50.991 39.6105C51.0749 39.5758 51.1673 39.5668 51.2564 39.5846C51.3454 39.6025 51.4272 39.6464 51.4912 39.7108C51.5259 39.7449 51.5547 39.7844 51.5767 39.8278L55.2101 44.3122V40.0349C55.2105 39.9133 55.259 39.7969 55.3451 39.711C55.4312 39.6252 55.5478 39.577 55.6694 39.577C55.7909 39.577 55.9076 39.6252 55.9936 39.711C56.0797 39.7969 56.1283 39.9133 56.1286 40.0349V45.5728C56.1288 45.6637 56.1019 45.7525 56.0515 45.8281C56.0011 45.9036 55.9294 45.9625 55.8455 45.9972C55.7615 46.032 55.6692 46.041 55.5801 46.0231C55.491 46.0053 55.4093 45.9614 55.3452 45.897C55.334 45.8857 55.322 45.8751 55.3092 45.8656L51.6263 41.3227Z" fill="#3A3A3A"/>
<path d="M51.1671 59.7693C51.0454 59.7688 50.9289 59.7202 50.8429 59.6342C50.7569 59.5482 50.7083 59.4317 50.7078 59.3101V53.7722C50.7083 53.6506 50.7569 53.5341 50.8429 53.4481C50.9289 53.362 51.0454 53.3135 51.1671 53.313H52.9454C53.3695 53.3127 53.7896 53.3959 54.1815 53.558C54.5734 53.7201 54.9296 53.9578 55.2296 54.2576C55.5297 54.5574 55.7677 54.9134 55.93 55.3052C56.0924 55.697 56.176 56.117 56.176 56.5411C56.176 56.9653 56.0924 57.3852 55.93 57.7771C55.7677 58.1689 55.5297 58.5249 55.2296 58.8247C54.9296 59.1244 54.5734 59.3622 54.1815 59.5243C53.7896 59.6864 53.3695 59.7696 52.9454 59.7693H51.1671ZM52.9454 54.2315H51.6263V58.8508H52.9454C53.5576 58.8503 54.1445 58.6067 54.5772 58.1736C55.0099 57.7405 55.253 57.1533 55.253 56.5411C55.253 55.9289 55.0099 55.3418 54.5772 54.9087C54.1445 54.4756 53.5576 54.232 52.9454 54.2315V54.2315Z" fill="#3A3A3A"/>
</svg>
