<svg width="231" height="33" viewBox="0 0 231 33" fill="none" xmlns="http://www.w3.org/2000/svg">
<path d="M22.939 5.76758C30.4672 5.76758 34.9918 12.4121 34.9918 18.7245C34.9918 26.2543 29.8738 31.8657 23.1984 31.8657C14.3722 31.8657 9.88513 24.9627 9.88513 18.429C9.88513 11.3786 14.8914 5.76758 22.939 5.76758ZM23.1984 30.6845C29.0211 30.6845 31.6539 25.7006 31.6539 20.1639C31.6539 12.818 27.6488 6.9488 22.1601 6.9488C18.0808 6.9488 13.2226 9.45899 13.2226 17.9492C13.2226 24.4829 16.9312 30.6845 23.1984 30.6845V30.6845Z" fill="#3A3A3A"/>
<path d="M41.5969 6.28439C42.4871 6.28439 43.3398 6.39521 44.2301 6.39521C46.5664 6.39521 48.0867 6.1001 49.9039 6.1001C55.3184 6.1001 57.766 9.45908 57.766 12.855C57.766 18.4656 52.7227 20.2378 50.1637 20.6811V20.8654C52.6113 21.087 54.8734 22.2683 58.0629 27.1409C59.9539 30.057 61.1777 31.4964 63.2547 31.3487V31.9762C59.3234 32.3083 57.6918 30.8689 55.207 27.9527C52.7597 25.0366 50.757 20.9393 47.234 20.9393H46.2328V24.4091C46.2328 26.8081 45.8246 30.3152 48.2352 30.3152H49.0141V31.3487H47.6418C47.1934 31.336 46.7469 31.2866 46.3066 31.2009C45.8656 31.1275 45.4191 31.0906 44.9719 31.0905C44.4876 31.0905 44.004 31.1275 43.5254 31.2009C43.0354 31.2867 42.5396 31.3361 42.0422 31.3487H40.6328V30.3152H41.3375C43.5254 30.3152 43.4512 26.8454 43.4512 24.4091V13.1505C43.4512 10.3451 43.6367 7.31825 41.3375 7.31825H40.6328V6.28439H41.5969ZM46.2328 19.9797H47.2711C53.5012 19.9797 54.8734 16.4726 54.8734 13.4826C54.8734 10.7881 53.5383 7.20744 48.6062 7.20744C47.811 7.19543 47.0165 7.25726 46.2328 7.39214L46.2328 19.9797Z" fill="#3A3A3A"/>
<path d="M68.08 30.315C68.9698 30.315 69.6374 30.0568 70.1565 28.3219C70.5379 26.3519 70.7119 24.3478 70.6757 22.3419V13.2241C70.7187 10.9086 70.6446 8.59229 70.4534 6.28414L71.8624 5.73047C75.4597 10.5662 81.5417 17.6535 84.0636 20.5331C86.2515 23.0433 87.6237 24.5193 89.5148 26.8817H89.7745C89.6291 25.8298 89.5547 24.7693 89.5519 23.7074V14.5527C89.5519 10.6031 89.2183 9.20066 88.9585 8.49927C88.8762 8.13194 88.6601 7.80797 88.3519 7.58985C88.0438 7.37172 87.6654 7.2749 87.2898 7.31805H86.6593V6.28414L87.1784 6.28414C87.8359 6.29663 88.4921 6.34596 89.144 6.43189C89.589 6.46884 90.0714 6.54271 90.5163 6.54271C90.9612 6.54271 91.4432 6.46884 91.8882 6.43189C92.5401 6.34596 93.1963 6.29663 93.8538 6.28414H94.3729V7.31801H93.928C93.5162 7.23674 93.0887 7.31327 92.7311 7.53229C92.3735 7.75131 92.1122 8.09666 91.9995 8.49923C91.8514 8.90516 91.4061 10.1972 91.4061 14.5527V24.3715C91.4061 26.919 91.4803 29.1337 91.5917 31.3484L90.1823 31.8656C87.3268 28.7644 82.2464 23.1164 79.2796 19.6466C73.9022 13.4454 73.0491 11.8952 72.5671 10.8617H72.3077C72.4521 11.7403 72.5265 12.6289 72.5299 13.5192V22.3419C72.4467 24.3491 72.6212 26.3587 73.0491 28.3219C73.5311 30.2411 74.5327 30.315 75.1632 30.315H75.4968V31.3485H74.9776C74.3201 31.336 73.6639 31.2866 73.012 31.2007C72.5671 31.1642 72.0851 31.0903 71.6401 31.0903C71.1948 31.0903 70.7128 31.1642 70.2679 31.2007C69.616 31.2866 68.9597 31.336 68.3023 31.3485H67.7831V30.315H68.08Z" fill="#3A3A3A"/>
<path d="M110.249 5.36133C110.88 7.50216 112.178 11.895 114.774 19.0562C115.441 20.9016 117.259 25.8854 117.852 27.3248C118.223 28.2105 119.113 30.3148 120.782 30.3148H121.709V31.3483H120.337C119.901 31.3356 119.466 31.2862 119.039 31.2005C118.535 31.127 118.027 31.0901 117.518 31.0901C116.849 31.0901 116.18 31.1269 115.516 31.2005C114.988 31.2863 114.455 31.3357 113.921 31.3483H112.994V30.3148H113.884C114.7 30.3148 115.367 29.5395 114.885 27.5464C114.482 25.8995 113.962 24.2833 113.327 22.7103C112.512 22.7842 111.696 22.8954 110.88 22.8954C108.912 22.9335 106.944 22.8717 104.983 22.7103L103.945 25.7377C103.166 28.0262 102.573 30.3148 104.687 30.3148H105.762V31.3482H104.612C104.176 31.3355 103.742 31.2861 103.314 31.2005C102.799 31.127 102.278 31.0901 101.757 31.0901C101.199 31.0901 100.641 31.127 100.088 31.2005C99.7106 31.2859 99.3257 31.3354 98.9387 31.3482H97.6035V30.3148H98.4191C100.755 30.3148 102.313 24.6669 105.057 17.284C106.244 14.0728 107.468 10.6399 108.84 5.76726L110.249 5.36133ZM108.84 10.2709C108.024 13.8515 107.32 15.3648 105.391 21.3448C106.8 21.4552 108.766 21.4926 110.398 21.4926C111.177 21.4926 111.993 21.4187 112.771 21.3448C111.325 16.583 110.064 14.1466 109.1 10.2709H108.84Z" fill="#3A3A3A"/>
<path d="M132.764 5.76758C135.508 12.4121 136.806 15.1435 138.549 18.7245C140.737 23.2278 141.479 24.8149 142.035 26.8819H142.294C142.702 25.1843 143.11 24.5567 144.186 22.342L146.782 17.0631C148.117 14.3686 150.712 8.53635 151.677 6.17389L153.123 5.76758C153.272 8.38859 153.346 9.86493 153.68 14.9223C154.013 20.4594 154.013 19.7206 154.125 22.2682C154.236 24.8515 154.162 30.3151 156.646 30.3151H157.425V31.3486H156.053C155.629 31.3359 155.207 31.2864 154.792 31.2008C154.314 31.1274 153.83 31.0904 153.346 31.0904C152.813 31.0904 152.28 31.1273 151.751 31.2008C151.324 31.2865 150.889 31.3359 150.453 31.3486H149.118V30.3151H149.86C151.529 30.3151 151.603 28.2482 151.603 27.3251C151.603 18.8722 150.639 15.808 151.158 11.5263H150.824C149.312 15.4355 147.579 19.2561 145.632 22.9696C143.407 27.3617 142.999 28.137 142.035 30.3517H141.182C135.471 18.9827 134.136 16.3986 132.282 11.5263H131.985C131.948 14.7006 131.799 16.4355 131.651 18.7245C131.503 21.2712 131.355 25.5902 131.355 27.2878C131.355 28.2482 131.466 30.3151 133.172 30.3151H133.987V31.3486H132.616C132.167 31.336 131.721 31.2865 131.28 31.2008C130.802 31.1274 130.318 31.0905 129.834 31.0904C129.288 31.0904 128.743 31.1273 128.202 31.2008C127.812 31.2864 127.415 31.3358 127.016 31.3486H125.68V30.3151H126.459C129.574 30.3151 129.834 23.4494 130.168 19.0565C130.687 12.2274 130.873 10.4555 131.094 6.35819L132.764 5.76758Z" fill="#3A3A3A"/>
<path d="M163.438 30.315H164.216C166.256 30.315 166.182 26.3281 166.182 24.0768V12.7809C166.182 9.93867 166.256 7.31804 164.216 7.31804H163.438V6.28418H164.662C165.17 6.2843 165.679 6.32134 166.182 6.39499C166.622 6.48065 167.069 6.53007 167.517 6.54274C169.445 6.54274 168.741 6.28418 170.447 6.28418H171.671V7.31804L170.892 7.31804C168.741 7.31804 168.963 10.7509 168.963 12.8179V24.335C168.963 27.1407 168.889 30.315 170.892 30.315H171.671V31.3485H170.336C169.912 31.3357 169.49 31.2863 169.075 31.2007C168.559 31.1272 168.038 31.0903 167.517 31.0903C167.033 31.0903 166.55 31.1272 166.071 31.2007C165.656 31.2863 165.234 31.3357 164.81 31.3485H163.438V30.315Z" fill="#3A3A3A"/>
<path d="M179.276 30.315H180.055C182.02 30.315 181.983 27.325 181.983 25.1842V13.0395C181.983 10.714 182.243 7.31804 180.055 7.31804H179.276V6.28418H180.5C181.022 6.29676 181.542 6.34614 182.057 6.43193C182.498 6.50546 182.945 6.54252 183.392 6.54274C183.864 6.54257 184.335 6.50552 184.801 6.43193C185.317 6.34614 185.837 6.29676 186.359 6.28418L187.583 6.28418V7.31804L186.804 7.31804C184.542 7.31804 184.765 10.714 184.765 12.9287V24.9991C184.765 27.3615 184.765 30.315 186.804 30.315H187.583V31.3485H186.248C185.848 31.3356 185.451 31.2862 185.061 31.2007C184.028 31.0535 182.979 31.0535 181.946 31.2007C181.518 31.2863 181.084 31.3357 180.648 31.3485H179.276V30.315ZM194.629 6.28418C195.214 6.32159 195.796 6.39561 196.372 6.5058C196.854 6.54274 197.299 6.54274 197.781 6.54274C198.202 6.56736 198.624 6.555 199.042 6.5058C199.455 6.39307 199.877 6.31887 200.303 6.28418H201.23V7.31804H200.637C198.486 7.31804 197.002 9.08988 194.444 11.4523L187.916 17.5058C190.661 18.3184 193.776 22.3419 195.259 24.2976C197.337 27.0668 198.894 30.3515 201.49 30.3515C201.742 30.3629 201.993 30.3253 202.231 30.2411V31.0529C201.602 31.3832 200.903 31.5604 200.192 31.5701C196.928 31.5701 194.889 28.7278 192.849 26.1064C190.63 23.2822 188.214 20.6178 185.617 18.1333C193.591 10.5292 195.037 9.0529 195.037 8.20373C195.036 8.0846 195.011 7.96688 194.963 7.85749C194.916 7.74809 194.847 7.64923 194.761 7.56671C194.674 7.48419 194.572 7.41968 194.461 7.37697C194.349 7.33426 194.23 7.31421 194.11 7.318L193.405 7.318V6.28418H194.629Z" fill="#3A3A3A"/>
<path d="M219.146 5.36133C219.777 7.50215 221.075 11.895 223.67 19.0562C224.338 20.9016 226.155 25.8854 226.748 27.3248C227.12 28.2105 228.009 30.3148 229.678 30.3148H230.605V31.3483H229.234C228.797 31.3356 228.363 31.2861 227.935 31.2005C227.432 31.127 226.924 31.0901 226.415 31.0901C225.746 31.0901 225.077 31.1269 224.413 31.2005C223.885 31.2863 223.352 31.3357 222.818 31.3483H221.891V30.3148H222.78C223.596 30.3148 224.264 29.5395 223.782 27.5464C223.379 25.8994 222.859 24.2833 222.224 22.7103C221.409 22.7842 220.593 22.8954 219.777 22.8954C217.809 22.9335 215.841 22.8717 213.88 22.7103L212.842 25.7376C212.063 28.0262 211.47 30.3148 213.584 30.3148H214.659V31.3482H213.509C213.073 31.3356 212.639 31.2862 212.212 31.2005C211.696 31.1271 211.175 31.0902 210.654 31.0901C210.096 31.0901 209.538 31.127 208.985 31.2005C208.607 31.286 208.222 31.3355 207.835 31.3483H206.5V30.3148H207.316C209.652 30.3148 211.21 24.6668 213.955 17.284C215.141 14.0728 216.365 10.6399 217.737 5.76726L219.146 5.36133ZM217.737 10.2709C216.921 13.8515 216.216 15.3648 214.288 21.3448C215.698 21.4552 217.663 21.4925 219.295 21.4925C220.073 21.4925 220.889 21.4187 221.668 21.3448C220.222 16.583 218.961 14.1466 217.997 10.2709H217.737Z" fill="#3A3A3A"/>
<path d="M24.1269 12.6795C24.1269 12.6795 24.4921 12.6795 24.8417 12.6546C25.1814 12.6352 25.5077 12.5158 25.7792 12.3117C26.0124 12.1258 26.1616 12.1647 26.2359 11.7588C26.3101 11.3544 26.1988 9.84427 26.1988 9.40256C26.1988 8.96086 26.0136 8.22365 26.3101 8.03938C26.7747 7.65623 27.1963 7.2242 27.5675 6.75082C27.9008 6.34566 28.9004 5.30212 29.1585 4.97078C29.4175 4.63952 29.4542 4.45525 29.8241 4.38215C30.1728 4.2713 30.5048 4.1141 30.8112 3.91481C30.8112 3.91481 31.7859 2.84705 31.9332 2.62624C32.0816 2.40543 32.8952 1.41078 33.1175 1.08031C33.3394 0.748257 33.8941 0.0483921 34.1531 0.0118421C34.4381 -0.0289388 34.7283 0.0364185 34.9679 0.195388C35.2017 0.772519 35.351 1.38009 35.4112 1.99948C35.4244 2.47967 35.3998 2.96016 35.3378 3.43655C35.0356 4.10206 34.6226 4.71199 34.1164 5.24064C33.8203 5.38843 33.0804 5.79279 33.3761 5.83006C33.9445 5.80229 34.5142 5.82676 35.078 5.90316C35.4851 6.05095 36.1144 6.2345 36.2249 6.49266C36.3363 6.75082 36.4101 6.93436 36.1882 7.04632C35.4285 7.40524 34.6505 7.72451 33.8574 8.00283C33.6718 8.00283 33.0433 8.00283 33.1909 8.22365C33.3394 8.44446 33.8574 8.40719 34.1531 8.51756C34.6264 8.79202 35.0618 9.12662 35.4484 9.51293C35.4869 9.55805 35.5157 9.61058 35.5329 9.66726C35.5501 9.72393 35.5555 9.78354 35.5485 9.84235C35.5416 9.90117 35.5226 9.95793 35.4926 10.0091C35.4627 10.0603 35.4225 10.1048 35.3745 10.1398C35.1156 10.2859 34.3015 10.4321 34.1531 10.5433C34.005 10.6545 33.3761 11.0231 33.2284 11.0962C32.9732 11.1516 32.7123 11.1767 32.4511 11.1709L32.3406 11.4275C32.4831 11.478 32.6334 11.5033 32.7847 11.5022C33.1946 11.5482 33.5943 11.66 33.9683 11.8334C34.2644 11.9804 34.9679 12.3482 35.078 12.6064C35.1894 12.8645 35.4851 13.122 35.1894 13.2324C34.8937 13.342 34.2644 13.6002 33.9683 13.6733C33.699 13.7824 33.406 13.8207 33.1175 13.7845C32.7513 13.7099 32.3736 13.7099 32.0074 13.7845C31.8601 13.8584 31.5269 13.8949 31.6741 14.0419C32.0269 14.2695 32.3984 14.467 32.7847 14.6322C33.0561 14.7739 33.2663 15.0091 33.3761 15.2939C33.4508 15.5155 33.4508 15.6625 33.2284 15.7364C33.0061 15.8103 32.4144 15.6625 32.0441 15.8102C31.6741 15.9572 30.8976 15.6998 30.8605 15.8475C30.8238 15.9937 31.489 16.8041 31.6375 16.9518C31.7859 17.098 32.1925 17.4666 32.1546 17.6516C32.1506 17.7457 32.1253 17.8376 32.0806 17.9206C32.0359 18.0035 31.9729 18.0753 31.8964 18.1307C31.5843 18.224 31.2606 18.2737 30.9347 18.2785C30.6351 18.293 30.3382 18.2159 30.084 18.0576C29.9416 17.9616 29.7933 17.8749 29.6398 17.7978L29.7875 18.1307C29.7875 18.1307 30.1948 18.4977 30.1948 18.7575C30.1948 19.0141 30.3054 19.2723 30.1207 19.308C29.841 19.366 29.5554 19.3911 29.2699 19.3827C29.1585 19.3454 28.4921 18.7932 28.3448 18.8663C28.1968 18.9394 28.1968 19.1976 28.1601 19.3454C28.123 19.4931 28.0492 19.8602 27.8265 19.8602C27.6042 19.8602 27.3452 19.9721 27.0871 19.8244C26.8273 19.6766 26.2359 19.3827 26.0508 19.2349C25.866 19.0872 25.3851 18.7201 25.3851 18.7201H24.978C24.978 18.7201 24.7562 19.3827 24.6448 19.6766C24.534 19.9721 23.8683 21.1137 23.757 21.3718C23.646 21.6285 22.8695 22.1806 22.7948 22.3657C22.5432 22.9987 22.3453 23.6516 22.2031 24.3175C22.2031 24.6488 22.314 26.1201 22.3511 26.4156C22.3615 26.7251 22.3987 27.0332 22.4624 27.3363C22.5363 27.4841 23.0546 28.7361 23.2027 28.9211C23.3504 29.1047 23.2394 29.2881 23.4605 29.2509C23.6893 29.2169 23.9131 29.1553 24.1269 29.0673C24.2753 28.9926 24.7902 28.7967 24.9378 28.9056C25.0859 29.0176 25.2367 29.215 25.0886 29.3628C24.7961 29.5504 24.4866 29.7103 24.164 29.8403C24.016 29.9149 23.757 29.9507 23.8683 30.0254C24.1944 30.2481 24.5036 30.4945 24.7933 30.7626C24.9039 30.9088 24.8937 30.845 24.9039 30.9088C24.9511 31.2027 24.534 31.3146 24.3488 31.2774C24.1306 31.2139 23.9199 31.1274 23.7203 31.0192C23.5718 30.9461 23.0168 30.2089 23.0913 30.4671C23.1484 30.7459 23.1733 31.0302 23.1656 31.3146C23.1656 31.4608 23.0168 31.4982 22.721 31.5713C22.6227 31.6072 22.5143 31.6043 22.418 31.5632C22.3217 31.5222 22.2448 31.4461 22.2031 31.3505C22.2063 30.8942 22.2434 30.4388 22.314 29.988C22.314 29.7672 22.389 29.4359 22.2031 29.2881C21.6696 28.5612 21.1873 27.7983 20.7597 27.005C20.5027 26.492 20.3161 25.9469 20.205 25.3845C20.2421 24.9801 20.205 23.7281 20.205 23.7281L20.1312 23.3595L19.4652 23.7638C19.4163 24.1518 19.3296 24.5342 19.2062 24.9054C19.0944 25.0532 18.6886 26.0112 18.5773 26.1201C18.4613 26.3289 18.3741 26.5523 18.3179 26.7842V27.89L18.5031 28.8107C18.5031 28.8107 18.6886 29.215 18.7992 29.2509C19.0786 29.3086 19.3513 29.3952 19.6128 29.509C19.7608 29.6194 20.0941 29.8776 19.8714 29.9507C19.4932 30.0254 19.1039 30.0254 18.7257 29.9507C18.5031 29.8776 18.8363 30.3566 18.9836 30.5402C19.1324 30.7252 19.2062 30.9088 19.0944 30.9834C18.9836 31.0565 18.5031 31.1296 18.3558 30.9461C18.1211 30.5849 17.8615 30.2403 17.5788 29.9149C17.5675 30.242 17.5048 30.5653 17.3929 30.873C17.304 30.9392 17.2022 30.9864 17.094 31.0116C16.9858 31.0367 16.8736 31.0393 16.7644 31.0192C16.6531 30.9834 16.5796 30.7252 16.6164 30.5044C16.6531 30.2836 17.2452 29.4717 17.2452 29.1404C17.2543 28.7721 17.1785 28.4067 17.0238 28.072C16.7332 27.6599 16.5201 27.1988 16.3948 26.7111C16.4304 26.1641 16.5168 25.6216 16.6531 25.0905C16.6877 24.955 16.6747 24.8118 16.6164 24.6846C16.6164 24.6846 14.0261 25.6069 13.1386 25.7888C12.2508 25.9755 11.5847 25.9755 11.3628 26.0486C11.1413 26.1201 10.0707 26.2523 9.79644 26.3176C9.4394 26.4032 8.73156 26.4249 8.4406 26.4887C7.99684 26.5866 7.61324 26.5758 6.88588 26.7111C6.1425 26.7455 5.40148 26.8192 4.66596 26.9319C4.16308 27.0854 3.63173 27.1232 3.11204 27.0424C2.52068 26.9693 1.5238 26.6675 1.50932 26.2072C1.47873 26.0693 1.47907 25.9264 1.51031 25.7887C1.54155 25.651 1.60294 25.5219 1.69008 25.4105C1.77722 25.299 1.88798 25.2082 2.01446 25.1442C2.14094 25.0803 2.28002 25.045 2.4218 25.0407C2.86748 24.9863 3.63004 24.8323 3.81476 24.8323C3.44378 24.7029 3.0591 24.6163 2.66828 24.5742C2.1415 24.5339 1.63897 24.3372 1.22572 24.0096C0.880759 23.781 0.712839 23.5974 0.781159 23.3595C0.975719 22.6877 1.96596 22.9178 1.96596 22.9178C1.96596 22.9178 1.22452 22.4015 1.07732 22.291C0.92964 22.1806 -0.0726806 21.5911 0.00419944 21.2614C0.155399 20.6129 0.81868 20.8539 1.11404 20.8539C1.41012 20.8539 1.81748 21.0032 1.96596 21.0032C2.11364 21.0032 0.707399 19.9721 0.558919 19.6766C0.4329 19.4121 0.40683 19.1112 0.485479 18.829C0.606999 18.6269 1.3226 18.5972 1.47492 18.5833C1.6878 18.5615 3.77764 18.7575 4.07412 18.829C5.1 19.027 6.11312 19.2857 7.10812 19.6035C7.66042 19.8899 8.24396 20.1122 8.84724 20.266C9.74628 20.3475 10.6514 20.3355 11.548 20.2303C12.0221 20.034 12.4596 19.7595 12.8421 19.4185C13.0644 19.1976 13.2496 19.1245 13.212 18.9394C13.1753 18.7575 13.2496 18.647 12.9168 18.7575C12.5182 18.8659 12.1082 18.927 11.6952 18.9394C11.6404 18.9454 11.5849 18.9391 11.5329 18.9209C11.4808 18.9027 11.4335 18.8731 11.3945 18.8343C11.3555 18.7955 11.3257 18.7484 11.3074 18.6966C11.2891 18.6449 11.2826 18.5896 11.2886 18.535C11.3289 18.2125 11.3907 17.893 11.4734 17.5785C11.548 17.3935 11.8437 16.3989 11.6952 16.5459C11.5188 16.8513 11.3704 17.1719 11.2519 17.5039C11.1413 17.7247 10.8077 18.0202 10.6605 18.2411C10.6075 18.3311 10.5317 18.4056 10.4406 18.4571C10.3496 18.5087 10.2465 18.5356 10.1417 18.535C9.99498 18.5231 9.85665 18.462 9.74926 18.3617C9.64187 18.2615 9.57176 18.128 9.55036 17.983C9.49446 17.4936 9.49446 16.9995 9.55036 16.5101C9.62412 16.1788 9.80852 15.4789 9.66084 15.5155C9.28362 15.5999 8.91291 15.7109 8.55148 15.8475C8.12822 15.9651 7.69389 16.0389 7.2554 16.0676C6.85019 16.1131 6.4419 16.1254 6.03468 16.1042C5.76995 15.9893 5.5587 15.779 5.44332 15.5155C5.42787 15.3834 5.44697 15.2495 5.49877 15.1269C5.55058 15.0043 5.63332 14.8971 5.739 14.8156C5.96084 14.6687 6.96052 14.3001 6.88588 14.1158C6.81124 13.9314 6.4046 14.0061 6.14604 14.0419C5.88748 14.0792 3.889 14.0061 3.85268 13.7472C3.83115 13.553 3.85316 13.3566 3.91713 13.1719C3.98109 12.9873 4.08543 12.8191 4.2226 12.6795C4.4709 12.4588 4.78039 12.3178 5.11052 12.2751C5.4076 12.27 5.69915 12.1943 5.96084 12.0542C6.10892 11.9439 5.5542 11.87 5.36828 11.9065C5.18428 11.9439 4.37068 11.6126 4.18508 11.6126C3.99996 11.6126 3.00108 11.3909 2.8906 11.1328C2.78004 10.8754 2.557 10.1398 2.78004 9.99119C3.09551 9.80455 3.44917 9.69105 3.81476 9.65913C4.11084 9.65913 4.44412 9.62338 4.51828 9.51293C4.59132 9.40256 4.25892 9.40256 4.07412 9.21742C3.70748 8.9605 3.30986 8.75047 2.8906 8.59225C2.74292 8.55491 1.89132 8.33409 1.78004 8.07593C1.66948 7.81929 1.78004 7.08208 1.96596 7.00818C2.35804 6.82498 2.79206 6.74904 3.2234 6.78816C3.81476 6.86126 4.03748 6.93436 4.03748 6.78816C4.03748 6.64037 2.74292 6.19795 2.18708 5.53535C1.81489 5.1637 1.48019 4.75662 1.1878 4.31996C0.965365 3.79714 0.792247 3.25486 0.670679 2.70014C0.596439 2.33153 0.485479 1.74211 0.781159 1.66822C1.07732 1.59512 1.29916 1.41078 1.59524 1.55777C1.89132 1.70556 2.33548 1.99948 2.59412 2.14719C2.85348 2.29498 3.40852 2.77324 3.81476 3.0314C4.2226 3.28876 4.70308 3.73047 5.0738 3.76781C5.59156 3.81143 6.10129 3.92281 6.5898 4.09907C6.99724 4.28341 9.03196 5.53535 9.36436 5.68314C9.69796 5.83006 12.2144 7.15597 12.6207 7.33944C13.0865 7.62266 13.4996 7.98389 13.8417 8.40719C14.0996 8.76177 14.2877 9.16177 14.396 9.58603C14.5816 10.0277 14.6925 11.0231 14.8769 11.3171C15.166 11.883 15.5001 12.4249 15.8761 12.9376C16.1359 13.1585 16.5054 13.8949 16.7644 14.0419C17.0238 14.1897 17.2085 14.4478 17.3929 14.3739C17.7337 14.0108 17.9758 13.567 18.096 13.0846C18.2339 12.6823 18.2967 12.2582 18.2812 11.8334C18.1686 11.0718 17.9954 10.3203 17.7632 9.58603C17.5433 8.61474 17.3828 7.63104 17.2828 6.64037C17.2707 5.9327 17.4771 5.23838 17.8741 4.65122C18.1693 4.27569 18.5684 3.9943 19.0222 3.84171C19.3648 3.73663 19.7151 3.65836 20.0699 3.6076C20.2979 3.56939 20.5285 3.54886 20.7597 3.5462C20.7035 3.31866 20.6339 3.09457 20.5515 2.87508C20.4452 2.64878 20.4452 2.33384 20.3164 2.36808C20.1819 2.39411 20.0437 2.39411 19.9093 2.36808C19.9093 2.36808 19.7608 1.96372 19.8355 1.81673C19.9272 1.66101 20.0646 1.53698 20.2292 1.46134C20.3225 1.42949 20.4217 1.41841 20.5198 1.4289C20.6179 1.43938 20.7125 1.47117 20.7968 1.52202C20.7968 1.52202 21.1668 1.59512 21.1304 1.77866C21.0672 1.93659 20.9651 2.07616 20.8336 2.18454L20.9077 2.58969L21.0929 3.25149L21.348 1.82995C21.348 1.82995 20.7968 1.60443 20.8707 1.49327C20.9448 1.38283 21.1168 1.07721 21.3035 1.05157C21.505 1.02354 21.8332 1.00562 21.9808 1.22651C22.1292 1.44733 22.314 1.55777 22.1664 1.70556C22.0243 1.81391 21.8597 1.88934 21.6847 1.92638L21.5741 3.17839L22.4257 2.18454C22.4257 2.18454 22.0409 1.97694 22.0409 1.75685C22.0409 1.53444 22.5363 1.41078 22.684 1.41078C22.8324 1.41078 23.3039 1.63167 23.3039 1.85328C23.3207 2.05327 23.2574 2.25177 23.1276 2.40543C23.0168 2.47853 22.7948 2.29498 22.7948 2.29498L21.8456 3.59518C21.8456 3.59518 22.721 3.87826 22.8812 4.25769C22.9851 4.50582 23.7203 4.68777 23.9792 5.1302C24.194 5.46274 24.3405 5.83437 24.4101 6.22359C24.448 6.5175 24.1019 6.36979 23.7324 6.36979C23.3249 6.39378 22.9226 6.4725 22.5363 6.60382C22.3511 6.67692 21.8077 6.99655 21.7347 7.29126C21.6633 7.65068 21.6844 8.02224 21.796 8.37136C21.907 8.7027 22.0554 9.18087 22.2398 9.77037C22.3944 10.413 22.6847 11.0156 23.0913 11.5379C23.498 11.9439 23.7203 12.4594 23.8683 12.5318C23.957 12.5765 24.0433 12.6259 24.1269 12.6795V12.6795Z" fill="#9C9C9C"/>
<path d="M21.6144 4.99041C21.614 5.11001 21.5781 5.22684 21.5111 5.32612C21.4441 5.42541 21.349 5.50269 21.2379 5.54822C21.1268 5.59375 21.0046 5.60547 20.8868 5.58191C20.769 5.55834 20.6609 5.50055 20.576 5.41583C20.4912 5.33112 20.4335 5.22328 20.4102 5.10594C20.387 4.9886 20.3992 4.86702 20.4453 4.75658C20.4914 4.64613 20.5694 4.55177 20.6694 4.48542C20.7693 4.41907 20.8868 4.3837 21.007 4.38379C21.0869 4.3839 21.166 4.39968 21.2398 4.43023C21.3135 4.46078 21.3806 4.5055 21.437 4.56183C21.4934 4.61817 21.5381 4.68501 21.5685 4.75855C21.5989 4.83209 21.6145 4.91087 21.6144 4.99041V4.99041Z" fill="#C8CDD0"/>
<path d="M32.0202 11.0106C31.5056 10.9408 31.0242 10.718 30.6389 10.3714C29.8006 9.7337 28.0729 8.01514 28.0729 8.01514" stroke="#C8CDD0" stroke-width="0.36706" stroke-miterlimit="10" stroke-linecap="round" stroke-dasharray="0.05 1.05 0.05 1.05"/>
<path d="M31.669 20.1603C31.6697 21.1067 31.5865 22.0513 31.4202 22.9831C32.1921 23.5574 33.0145 24.0613 33.8773 24.4886C34.6333 22.659 35.0176 20.6984 35.0081 18.7201C35.0081 13.3568 31.7409 7.75707 26.1405 6.19092C25.9311 6.62482 25.7706 7.20341 25.5307 7.75397C29.2182 9.59692 31.669 14.4206 31.669 20.1603Z" fill="#3A3A3A"/>
</svg>
