<svg width="237" height="39" viewBox="0 0 237 39" fill="none" xmlns="http://www.w3.org/2000/svg">
<path d="M31.5341 7.61279C38.2923 7.61279 42.3541 13.6392 42.3541 19.3644C42.3541 26.1938 37.7596 31.2832 31.7669 31.2832C23.8434 31.2832 19.8152 25.0223 19.8152 19.0964C19.8152 12.7018 24.3095 7.61279 31.5341 7.61279ZM31.7669 30.2118C36.9941 30.2118 39.3576 25.6916 39.3576 20.6699C39.3576 14.0073 35.7622 8.68413 30.8348 8.68413C27.1727 8.68413 22.8114 10.9608 22.8114 18.6612C22.8114 24.5871 26.1407 30.2119 31.7669 30.2119V30.2118Z" fill="black"/>
<path d="M48.2837 8.08121C49.0829 8.08121 49.8484 8.18172 50.6476 8.18172C52.745 8.18172 54.1098 7.91406 55.7412 7.91406C60.6019 7.91406 62.7992 10.9606 62.7992 14.0406C62.7992 19.1293 58.2716 20.7367 55.9744 21.1387V21.3059C58.1717 21.5069 60.2024 22.5782 63.0657 26.9976C64.7633 29.6424 65.862 30.9479 67.7265 30.8139V31.3831C64.1973 31.6843 62.7325 30.3788 60.5019 27.7339C58.3049 25.0891 56.507 21.3729 53.3443 21.3729H52.4455V24.5199C52.4455 26.6957 52.0791 29.8766 54.2431 29.8766H54.9423V30.8139H53.7104C53.3079 30.8024 52.907 30.7576 52.5118 30.6799C52.1158 30.6133 51.715 30.5798 51.3135 30.5798C50.8788 30.5798 50.4447 30.6133 50.015 30.6799C49.5751 30.7577 49.13 30.8025 48.6835 30.8139H47.4182V29.8766H48.0509C50.015 29.8766 49.9484 26.7296 49.9484 24.5199V14.3086C49.9484 11.7642 50.1149 9.0189 48.0509 9.0189H47.4182V8.08121H48.2837ZM52.4455 20.5025H53.3776C58.9705 20.5025 60.2024 17.3216 60.2024 14.6098C60.2024 12.1659 59.0038 8.9184 54.5762 8.9184C53.8623 8.9075 53.149 8.96358 52.4455 9.08591L52.4455 20.5025Z" fill="black"/>
<path d="M72.0584 29.8767C72.8572 29.8767 73.4565 29.6425 73.9226 28.069C74.2649 26.2823 74.4211 24.4645 74.3886 22.6453V14.3757C74.4273 12.2755 74.3607 10.1747 74.1891 8.08127L75.454 7.5791C78.6833 11.965 84.1433 18.393 86.4073 21.0048C88.3714 23.2814 89.6033 24.6201 91.301 26.7628H91.5342C91.4036 25.8087 91.3368 24.8468 91.3343 23.8838V15.5807C91.3343 11.9985 91.0348 10.7265 90.8016 10.0903C90.7277 9.75718 90.5337 9.46334 90.2571 9.26551C89.9804 9.06768 89.6408 8.97986 89.3035 9.019H88.7375V8.08127H89.2036C89.7938 8.09259 90.3829 8.13733 90.9682 8.21528C91.3676 8.24878 91.8007 8.31578 92.2001 8.31578C92.5995 8.31578 93.0322 8.24878 93.4317 8.21528C94.0169 8.13733 94.606 8.09259 95.1962 8.08127H95.6623V9.01896H95.2629C94.8931 8.94525 94.5094 9.01467 94.1884 9.21331C93.8674 9.41196 93.6328 9.72518 93.5316 10.0903C93.3987 10.4585 92.9989 11.6303 92.9989 15.5806V24.4861C92.9989 26.7966 93.0655 28.8053 93.1655 30.814L91.9002 31.283C89.3368 28.4703 84.7759 23.3477 82.1126 20.2007C77.2852 14.5763 76.5193 13.1703 76.0866 12.233H75.8537C75.9834 13.0299 76.0501 13.8359 76.0533 14.6433V22.6453C75.9785 24.4658 76.1352 26.2884 76.5193 28.069C76.952 29.8097 77.8512 29.8767 78.4172 29.8767H78.7166V30.814H78.2506C77.6604 30.8027 77.0712 30.7579 76.486 30.68C76.0866 30.6469 75.6539 30.5799 75.2545 30.5799C74.8547 30.5799 74.422 30.6469 74.0225 30.68C73.4373 30.7579 72.8482 30.8027 72.258 30.814H71.7919V29.8767H72.0584Z" fill="black"/>
<path d="M109.915 7.24463C110.481 9.18631 111.646 13.1705 113.977 19.6656C114.576 21.3393 116.207 25.8595 116.74 27.165C117.073 27.9683 117.872 29.8769 119.37 29.8769H120.202V30.8142H118.971C118.579 30.8027 118.189 30.7579 117.805 30.6802C117.353 30.6135 116.897 30.58 116.44 30.58C115.84 30.58 115.239 30.6134 114.643 30.6802C114.169 30.758 113.691 30.8028 113.211 30.8142H112.379V29.8769H113.177C113.91 29.8769 114.509 29.1737 114.077 27.366C113.715 25.8723 113.248 24.4065 112.678 22.9798C111.946 23.0468 111.213 23.1476 110.481 23.1476C108.715 23.1822 106.948 23.1261 105.187 22.9798L104.255 25.7255C103.556 27.8011 103.023 29.8768 104.921 29.8768H105.887V30.8142H104.855C104.463 30.8026 104.073 30.7578 103.689 30.6801C103.226 30.6135 102.759 30.58 102.291 30.58C101.79 30.58 101.29 30.6134 100.793 30.6801C100.454 30.7576 100.108 30.8025 99.761 30.8142H98.5624V29.8769H99.2946C101.392 29.8769 102.79 24.7543 105.254 18.0582C106.319 15.1457 107.418 12.0322 108.65 7.6128L109.915 7.24463ZM108.65 11.6975C107.917 14.945 107.285 16.3176 105.554 21.7413C106.819 21.8414 108.583 21.8753 110.048 21.8753C110.747 21.8753 111.48 21.8083 112.179 21.7413C110.881 17.4224 109.749 15.2127 108.883 11.6975H108.65Z" fill="black"/>
<path d="M130.127 7.61279C132.59 13.6392 133.756 16.1165 135.32 19.3644C137.284 23.4488 137.951 24.8883 138.45 26.763H138.683C139.049 25.2233 139.415 24.6541 140.381 22.6454L142.711 17.8576C143.91 15.4137 146.24 10.124 147.106 7.98131L148.404 7.61279C148.537 9.98999 148.604 11.329 148.904 15.9159C149.203 20.9379 149.203 20.2679 149.303 22.5784C149.403 24.9214 149.336 29.8768 151.567 29.8768H152.266V30.8142H151.034C150.654 30.8026 150.275 30.7578 149.902 30.6802C149.473 30.6135 149.039 30.58 148.604 30.58C148.125 30.58 147.647 30.6135 147.173 30.6802C146.788 30.7578 146.399 30.8027 146.007 30.8142H144.808V29.8768H145.475C146.973 29.8768 147.039 28.0022 147.039 27.165C147.039 19.4984 146.174 16.7192 146.64 12.8359H146.34C144.983 16.3814 143.427 19.8466 141.679 23.2146C139.681 27.1981 139.315 27.9013 138.45 29.91H137.684C132.557 19.5986 131.359 17.2549 129.694 12.8359H129.428C129.394 15.7149 129.261 17.2884 129.128 19.3644C128.995 21.6743 128.862 25.5915 128.862 27.1311C128.862 28.0022 128.961 29.8768 130.493 29.8768H131.225V30.8142H129.994C129.591 30.8027 129.19 30.7579 128.795 30.6802C128.366 30.6135 127.932 30.5801 127.497 30.58C127.007 30.58 126.517 30.6135 126.032 30.6802C125.682 30.7577 125.325 30.8026 124.967 30.8142H123.768V29.8768H124.467C127.263 29.8768 127.497 23.6498 127.796 19.6656C128.262 13.4717 128.429 11.8647 128.628 8.14847L130.127 7.61279Z" fill="black"/>
<path d="M157.664 29.8764H158.363C160.194 29.8764 160.127 26.2604 160.127 24.2186V13.9734C160.127 11.3956 160.194 9.01874 158.363 9.01874H157.664V8.08105H158.762C159.219 8.08116 159.675 8.11475 160.127 8.18156C160.522 8.25925 160.923 8.30407 161.326 8.31557C163.057 8.31557 162.425 8.08105 163.956 8.08105H165.055V9.01874H164.356C162.425 9.01874 162.624 12.1322 162.624 14.0069V24.4527C162.624 26.9974 162.557 29.8764 164.356 29.8764H165.055V30.8138H163.856C163.476 30.8022 163.097 30.7574 162.724 30.6798C162.261 30.6131 161.794 30.5796 161.326 30.5796C160.891 30.5797 160.457 30.6131 160.028 30.6798C159.655 30.7574 159.276 30.8022 158.896 30.8138H157.664V29.8764Z" fill="black"/>
<path d="M171.882 29.8764H172.581C174.346 29.8764 174.312 27.1646 174.312 25.2229V14.208C174.312 12.0988 174.546 9.01874 172.581 9.01874H171.882V8.08105H172.981C173.449 8.09247 173.916 8.13725 174.379 8.21506C174.775 8.28175 175.176 8.31537 175.577 8.31557C176.001 8.31541 176.424 8.28181 176.842 8.21506C177.305 8.13725 177.772 8.09247 178.241 8.08105H179.339V9.01874H178.64C176.61 9.01874 176.81 12.0988 176.81 14.1075V25.055C176.81 27.1977 176.81 29.8764 178.64 29.8764H179.339V30.8138H178.141C177.782 30.8021 177.426 30.7573 177.075 30.6798C176.148 30.5462 175.206 30.5462 174.279 30.6798C173.895 30.7574 173.505 30.8022 173.114 30.8138H171.882V29.8764ZM185.665 8.08105C186.19 8.11498 186.713 8.18212 187.229 8.28206C187.662 8.31557 188.062 8.31557 188.495 8.31557C188.872 8.3379 189.251 8.32668 189.627 8.28206C189.997 8.17981 190.376 8.11252 190.759 8.08105H191.591V9.01874H191.058C189.127 9.01874 187.795 10.6258 185.499 12.7684L179.639 18.2588C182.103 18.9958 184.899 22.645 186.231 24.4188C188.096 26.9304 189.493 29.9096 191.824 29.9096C192.05 29.9199 192.276 29.8858 192.49 29.8094V30.5457C191.925 30.8453 191.297 31.006 190.659 31.0148C187.729 31.0148 185.898 28.4369 184.067 26.0593C182.075 23.4979 179.906 21.0813 177.575 18.828C184.733 11.9312 186.031 10.5922 186.031 9.82204C186.03 9.714 186.008 9.60723 185.965 9.50801C185.922 9.40879 185.861 9.31912 185.783 9.24428C185.706 9.16944 185.614 9.11093 185.514 9.07219C185.413 9.03345 185.306 9.01527 185.199 9.01871H184.566V8.08105H185.665Z" fill="black"/>
<path d="M207.674 7.24463C208.24 9.18631 209.406 13.1705 211.736 19.6656C212.336 21.3393 213.967 25.8595 214.499 27.165C214.832 27.9683 215.631 29.8768 217.129 29.8768H217.962V30.8142H216.73C216.339 30.8027 215.949 30.7578 215.565 30.6802C215.113 30.6135 214.657 30.58 214.2 30.58C213.599 30.58 212.999 30.6134 212.402 30.6802C211.929 30.758 211.45 30.8028 210.971 30.8142H210.138V29.8768H210.937C211.669 29.8768 212.269 29.1737 211.836 27.366C211.475 25.8722 211.008 24.4064 210.438 22.9798C209.706 23.0468 208.973 23.1476 208.241 23.1476C206.474 23.1822 204.708 23.1261 202.947 22.9798L202.015 25.7255C201.316 27.8011 200.783 29.8768 202.681 29.8768H203.647V30.8141H202.614C202.223 30.8027 201.833 30.7579 201.449 30.6802C200.986 30.6135 200.519 30.5801 200.051 30.58C199.55 30.58 199.049 30.6135 198.553 30.6802C198.214 30.7577 197.868 30.8026 197.52 30.8142H196.322V29.8768H197.055C199.152 29.8768 200.55 24.7543 203.014 18.0582C204.079 15.1457 205.178 12.0322 206.409 7.6128L207.674 7.24463ZM206.409 11.6975C205.677 14.945 205.044 16.3176 203.313 21.7413C204.579 21.8414 206.343 21.8753 207.808 21.8753C208.507 21.8753 209.239 21.8083 209.938 21.7413C208.64 17.4224 207.508 15.2127 206.643 11.6975H206.409Z" fill="black"/>
<path d="M32.6005 13.8818C32.6005 13.8818 32.9284 13.8818 33.2422 13.8593C33.5472 13.8417 33.8401 13.7334 34.0838 13.5482C34.2932 13.3797 34.4271 13.4149 34.4938 13.0468C34.5604 12.68 34.4605 11.3104 34.4605 10.9097C34.4605 10.5091 34.2943 9.84049 34.5604 9.67337C34.9775 9.32586 35.3559 8.93402 35.6892 8.50467C35.9884 8.1372 36.8858 7.19073 37.1175 6.89021C37.35 6.58977 37.383 6.42265 37.715 6.35635C38.0281 6.25581 38.3261 6.11323 38.6012 5.93248C38.6012 5.93248 39.4762 4.96405 39.6084 4.76378C39.7416 4.5635 40.4721 3.66138 40.6716 3.36165C40.8708 3.06049 41.3688 2.42573 41.6013 2.39258C41.8572 2.35559 42.1176 2.41487 42.3327 2.55905C42.5426 3.08249 42.6767 3.63354 42.7308 4.19532C42.7426 4.63084 42.7205 5.06663 42.6648 5.49871C42.3935 6.10231 42.0228 6.6555 41.5683 7.13498C41.3025 7.26902 40.6383 7.63576 40.9038 7.66956C41.414 7.64438 41.9255 7.66658 42.4316 7.73587C42.797 7.86991 43.362 8.03638 43.4612 8.27053C43.5612 8.50467 43.6275 8.67114 43.4283 8.77269C42.7462 9.09822 42.0478 9.38779 41.3358 9.64022C41.1692 9.64022 40.605 9.64022 40.7375 9.84049C40.8708 10.0408 41.3358 10.007 41.6013 10.1071C42.0262 10.356 42.4171 10.6595 42.7641 11.0098C42.7987 11.0508 42.8245 11.0984 42.84 11.1498C42.8555 11.2012 42.8602 11.2553 42.854 11.3086C42.8478 11.362 42.8307 11.4134 42.8038 11.4599C42.777 11.5063 42.7409 11.5466 42.6978 11.5784C42.4653 11.7109 41.7345 11.8435 41.6013 11.9444C41.4683 12.0452 40.9038 12.3795 40.7712 12.4458C40.5421 12.4961 40.3078 12.5189 40.0733 12.5136L39.9742 12.7463C40.1021 12.7921 40.237 12.815 40.3728 12.814C40.7408 12.8558 41.0997 12.9572 41.4354 13.1145C41.7012 13.2478 42.3327 13.5814 42.4316 13.8155C42.5316 14.0497 42.797 14.2832 42.5316 14.3833C42.2662 14.4827 41.7012 14.7169 41.4354 14.7832C41.1936 14.8822 40.9306 14.9169 40.6716 14.8841C40.3428 14.8164 40.0038 14.8164 39.675 14.8841C39.5428 14.9511 39.2437 14.9842 39.3758 15.1175C39.6925 15.324 40.026 15.5031 40.3728 15.6529C40.6164 15.7814 40.8052 15.9947 40.9038 16.253C40.9708 16.454 40.9708 16.5873 40.7712 16.6544C40.5716 16.7214 40.0404 16.5873 39.708 16.7213C39.3758 16.8546 38.6787 16.6212 38.6454 16.7552C38.6125 16.8878 39.2097 17.6227 39.3429 17.7567C39.4762 17.8893 39.8412 18.2236 39.8072 18.3915C39.8036 18.4768 39.7809 18.5601 39.7407 18.6354C39.7006 18.7106 39.6441 18.7757 39.5754 18.8259C39.2952 18.9105 39.0046 18.9557 38.712 18.96C38.4431 18.9732 38.1766 18.9033 37.9483 18.7596C37.8205 18.6726 37.6874 18.5939 37.5496 18.5241L37.6821 18.8259C37.6821 18.8259 38.0478 19.1588 38.0478 19.3944C38.0478 19.6272 38.1471 19.8613 37.9813 19.8938C37.7302 19.9464 37.4738 19.9691 37.2175 19.9615C37.1175 19.9276 36.5193 19.4268 36.3871 19.4931C36.2542 19.5594 36.2542 19.7937 36.2212 19.9276C36.1879 20.0616 36.1216 20.3945 35.9217 20.3945C35.7222 20.3945 35.4897 20.4961 35.2579 20.3621C35.0247 20.2281 34.4938 19.9615 34.3276 19.8275C34.1617 19.6935 33.73 19.3605 33.73 19.3605H33.3646C33.3646 19.3605 33.1654 19.9615 33.0655 20.2281C32.9659 20.4961 32.3683 21.5315 32.2684 21.7656C32.1688 21.9984 31.4717 22.4991 31.4047 22.667C31.1788 23.2412 31.0011 23.8333 30.8734 24.4373C30.8734 24.7378 30.973 26.0721 31.0063 26.3402C31.0156 26.6209 31.0491 26.9003 31.1063 27.1753C31.1725 27.3092 31.6379 28.4448 31.7708 28.6126C31.9034 28.7791 31.8038 28.9455 32.0023 28.9117C32.2077 28.8809 32.4086 28.825 32.6005 28.7452C32.7337 28.6775 33.196 28.4997 33.3285 28.5985C33.4614 28.7001 33.5968 28.8792 33.4638 29.0133C33.2013 29.1834 32.9234 29.3284 32.6338 29.4463C32.5009 29.514 32.2684 29.5465 32.3683 29.6141C32.6611 29.8161 32.9387 30.0396 33.1988 30.2828C33.298 30.4154 33.2889 30.3575 33.298 30.4154C33.3404 30.6819 32.9659 30.7835 32.7997 30.7497C32.6038 30.6922 32.4147 30.6137 32.2355 30.5155C32.1022 30.4492 31.6039 29.7806 31.6708 30.0148C31.722 30.2676 31.7444 30.5255 31.7375 30.7835C31.7375 30.9161 31.6039 30.95 31.3384 31.0163C31.2501 31.0488 31.1528 31.0462 31.0664 31.009C30.9799 30.9717 30.9109 30.9027 30.8734 30.816C30.8763 30.4022 30.9096 29.9891 30.973 29.5803C30.973 29.38 31.0403 29.0795 30.8734 28.9455C30.3945 28.2862 29.9616 27.5942 29.5777 26.8747C29.347 26.4095 29.1795 25.9151 29.0797 25.405C29.113 25.0382 29.0797 23.9027 29.0797 23.9027L29.0134 23.5683L28.4155 23.9351C28.3716 24.287 28.2938 24.6338 28.183 24.9705C28.0827 25.1045 27.7184 25.9734 27.6185 26.0721C27.5144 26.2615 27.436 26.4641 27.3856 26.6745V27.6774L27.5518 28.5125C27.5518 28.5125 27.7184 28.8792 27.8176 28.9117C28.0685 28.9641 28.3133 29.0426 28.5481 29.1458C28.681 29.2459 28.9802 29.4802 28.7802 29.5465C28.4407 29.6141 28.0912 29.6141 27.7517 29.5465C27.5518 29.4802 27.851 29.9146 27.9832 30.0811C28.1168 30.2489 28.183 30.4154 28.0827 30.483C27.9832 30.5493 27.5518 30.6156 27.4196 30.4492C27.2089 30.1216 26.9759 29.8091 26.7221 29.514C26.7119 29.8106 26.6556 30.1038 26.5552 30.3829C26.4753 30.443 26.384 30.4858 26.2869 30.5086C26.1898 30.5314 26.089 30.5338 25.9909 30.5155C25.891 30.483 25.8251 30.2489 25.8581 30.0486C25.891 29.8484 26.4226 29.112 26.4226 28.8115C26.4307 28.4775 26.3627 28.146 26.2238 27.8425C25.963 27.4687 25.7717 27.0505 25.6592 26.6082C25.6911 26.1121 25.7687 25.62 25.891 25.1383C25.9221 25.0154 25.9105 24.8855 25.8581 24.7702C25.8581 24.7702 23.5327 25.6067 22.736 25.7717C21.939 25.941 21.341 25.941 21.1418 26.0073C20.943 26.0721 19.9818 26.192 19.7356 26.2513C19.4151 26.3289 18.7797 26.3486 18.5185 26.4065C18.1201 26.4953 17.7757 26.4855 17.1228 26.6082C16.4554 26.6394 15.7902 26.7062 15.1299 26.8084C14.6784 26.9477 14.2014 26.982 13.7349 26.9086C13.204 26.8423 12.3091 26.5687 12.2961 26.1512C12.2686 26.0261 12.2689 25.8965 12.297 25.7716C12.325 25.6467 12.3801 25.5296 12.4583 25.4285C12.5366 25.3275 12.636 25.245 12.7495 25.1871C12.8631 25.1291 12.988 25.0971 13.1152 25.0932C13.5153 25.0438 14.1999 24.9042 14.3657 24.9042C14.0327 24.7868 13.6874 24.7082 13.3365 24.67C12.8636 24.6335 12.4125 24.4551 12.0415 24.158C11.7318 23.9506 11.5811 23.7841 11.6424 23.5683C11.817 22.959 12.706 23.1677 12.706 23.1677C12.706 23.1677 12.0404 22.6994 11.9083 22.5993C11.7757 22.4991 10.8759 21.9645 10.9449 21.6654C11.0806 21.0773 11.6761 21.2959 11.9412 21.2959C12.207 21.2959 12.5727 21.4313 12.706 21.4313C12.8386 21.4313 11.5762 20.4961 11.4429 20.2281C11.3297 19.9881 11.3063 19.7152 11.3769 19.4593C11.486 19.276 12.1284 19.2491 12.2652 19.2365C12.4563 19.2167 14.3324 19.3944 14.5986 19.4593C15.5195 19.6389 16.429 19.8735 17.3223 20.1618C17.8181 20.4215 18.3419 20.6232 18.8835 20.7627C19.6906 20.8366 20.5032 20.8257 21.308 20.7302C21.7337 20.5522 22.1265 20.3033 22.4698 19.9939C22.6693 19.7937 22.8356 19.7274 22.8019 19.5594C22.769 19.3944 22.8356 19.2942 22.5368 19.3944C22.1791 19.4928 21.811 19.5482 21.4403 19.5594C21.391 19.5649 21.3412 19.5591 21.2945 19.5426C21.2478 19.5261 21.2053 19.4993 21.1703 19.4641C21.1353 19.4289 21.1085 19.3862 21.0921 19.3393C21.0756 19.2923 21.0698 19.2422 21.0752 19.1927C21.1114 18.9002 21.1668 18.6103 21.2411 18.3252C21.308 18.1573 21.5735 17.2553 21.4403 17.3886C21.2818 17.6656 21.1486 17.9564 21.0422 18.2575C20.943 18.4578 20.6435 18.7258 20.5114 18.9261C20.4638 19.0077 20.3957 19.0753 20.3139 19.122C20.2322 19.1688 20.1397 19.1932 20.0456 19.1927C19.9139 19.1818 19.7897 19.1264 19.6933 19.0355C19.5969 18.9446 19.5339 18.8235 19.5147 18.692C19.4646 18.2481 19.4646 17.8 19.5147 17.3562C19.581 17.0556 19.7465 16.4209 19.6139 16.454C19.2753 16.5306 18.9425 16.6312 18.618 16.7552C18.238 16.8618 17.8481 16.9287 17.4545 16.9548C17.0907 16.9961 16.7242 17.0072 16.3586 16.988C16.121 16.8838 15.9313 16.693 15.8277 16.454C15.8139 16.3342 15.831 16.2128 15.8775 16.1016C15.924 15.9904 15.9983 15.8931 16.0932 15.8193C16.2923 15.686 17.1898 15.3517 17.1228 15.1845C17.0558 15.0173 16.6907 15.0851 16.4586 15.1175C16.2265 15.1514 14.4324 15.0851 14.3998 14.8502C14.3804 14.6741 14.4002 14.4959 14.4576 14.3285C14.5151 14.161 14.6087 14.0085 14.7319 13.8818C14.9548 13.6816 15.2326 13.5538 15.529 13.5151C15.7957 13.5105 16.0574 13.4418 16.2923 13.3147C16.4253 13.2146 15.9273 13.1476 15.7604 13.1808C15.5952 13.2146 14.8648 12.9142 14.6982 12.9142C14.532 12.9142 13.6353 12.7131 13.5361 12.479C13.4368 12.2456 13.2366 11.5784 13.4368 11.4436C13.72 11.2743 14.0375 11.1714 14.3657 11.1424C14.6315 11.1424 14.9307 11.11 14.9973 11.0098C15.0629 10.9097 14.7645 10.9097 14.5986 10.7418C14.2694 10.5088 13.9125 10.3183 13.5361 10.1748C13.4035 10.1409 12.639 9.94066 12.5391 9.70652C12.4399 9.47375 12.5391 8.80512 12.706 8.73809C13.058 8.57194 13.4476 8.50306 13.8349 8.53854C14.3657 8.60484 14.5657 8.67114 14.5657 8.53854C14.5657 8.4045 13.4035 8.00323 12.9045 7.40227C12.5704 7.06519 12.2699 6.69598 12.0074 6.29994C11.8078 5.82575 11.6523 5.33392 11.5432 4.8308C11.4766 4.49648 11.3769 3.96189 11.6424 3.89487C11.9083 3.82857 12.1074 3.66138 12.3732 3.7947C12.639 3.92874 13.0377 4.19532 13.2699 4.32929C13.5028 4.46333 14.001 4.8971 14.3657 5.13124C14.7319 5.36466 15.1632 5.76528 15.496 5.79915C15.9608 5.83871 16.4184 5.93973 16.857 6.0996C17.2227 6.26679 19.0494 7.40227 19.3478 7.53631C19.6472 7.66956 21.9063 8.87214 22.271 9.03854C22.6892 9.29541 23.06 9.62304 23.3672 10.007C23.5987 10.3286 23.7676 10.6913 23.8648 11.0761C24.0314 11.4768 24.131 12.3795 24.2965 12.6462C24.556 13.1594 24.856 13.6509 25.1935 14.116C25.4267 14.3163 25.7585 14.9842 25.9909 15.1175C26.2238 15.2515 26.3897 15.4857 26.5552 15.4186C26.8612 15.0893 27.0785 14.6868 27.1864 14.2493C27.3102 13.8844 27.3665 13.4998 27.3526 13.1145C27.2516 12.4237 27.0961 11.7421 26.8877 11.0761C26.6902 10.1952 26.5462 9.30301 26.4563 8.4045C26.4455 7.76266 26.6308 7.13293 26.9872 6.60039C27.2522 6.25979 27.6104 6.00457 28.0179 5.86618C28.3254 5.77087 28.6399 5.69988 28.9584 5.65384C29.1631 5.61919 29.3701 5.60057 29.5777 5.59816C29.5272 5.39178 29.4648 5.18854 29.3907 4.98947C29.2954 4.78422 29.2954 4.49858 29.1797 4.52963C29.059 4.55324 28.9349 4.55324 28.8143 4.52963C28.8143 4.52963 28.681 4.16289 28.748 4.02957C28.8303 3.88833 28.9537 3.77584 29.1015 3.70724C29.1852 3.67835 29.2743 3.6683 29.3623 3.67781C29.4504 3.68732 29.5353 3.71615 29.611 3.76227C29.611 3.76227 29.9431 3.82857 29.9105 3.99504C29.8537 4.13828 29.7621 4.26487 29.644 4.36316L29.7105 4.73063L29.8768 5.33087L30.1058 4.04155C30.1058 4.04155 29.611 3.83702 29.6773 3.7362C29.7439 3.63603 29.8982 3.35884 30.0658 3.33558C30.2467 3.31016 30.5413 3.29391 30.6738 3.49425C30.8071 3.69453 30.973 3.7947 30.8405 3.92874C30.7129 4.02701 30.5652 4.09543 30.408 4.12902L30.3088 5.26457L31.0733 4.36316C31.0733 4.36316 30.7279 4.17488 30.7279 3.97525C30.7279 3.77354 31.1726 3.66138 31.3051 3.66138C31.4383 3.66138 31.8616 3.86172 31.8616 4.06272C31.8768 4.24411 31.8199 4.42414 31.7034 4.5635C31.6039 4.6298 31.4047 4.46333 31.4047 4.46333L30.5525 5.64258C30.5525 5.64258 31.3384 5.89933 31.4822 6.24346C31.5754 6.46851 32.2355 6.63354 32.4679 7.0348C32.6608 7.33642 32.7922 7.67347 32.8547 8.02649C32.8887 8.29306 32.578 8.15909 32.2463 8.15909C31.8805 8.18084 31.5193 8.25224 31.1725 8.37135C31.0063 8.43765 30.5185 8.72755 30.4529 8.99484C30.3889 9.32083 30.4078 9.65782 30.508 9.97446C30.6076 10.275 30.7408 10.7087 30.9064 11.2433C31.0452 11.8262 31.3058 12.3727 31.6708 12.8465C32.0359 13.2146 32.2355 13.6822 32.3683 13.7479C32.448 13.7885 32.5255 13.8332 32.6005 13.8818V13.8818Z" fill="#FF3739"/>
<path d="M18.152 20.73L18.1631 20.7429" stroke="white" stroke-width="0.36706" stroke-miterlimit="10" stroke-linecap="round"/>
<path d="M18.7554 21.2061C18.8756 21.2756 19.0004 21.3366 19.129 21.3887" stroke="white" stroke-width="0.36706" stroke-miterlimit="10" stroke-linecap="round" stroke-dasharray="0.05 1.05"/>
<path d="M19.4884 21.509C19.5189 21.5167 19.5498 21.5244 19.5809 21.5315C22.8826 22.2918 26.4893 18.96 27.9506 16.8215C28.9627 15.415 29.463 13.7012 29.3676 11.9677C29.3676 10.8984 28.3935 7.60329 30.1205 7.69219C30.993 7.73733 31.4916 7.78319 31.7771 7.82198" stroke="white" stroke-width="0.36706" stroke-miterlimit="10" stroke-linecap="round" stroke-dasharray="0.05 1.05 0.05 1.05"/>
<path d="M32.147 7.90283C32.1601 7.91115 32.1582 7.91574 32.1582 7.91574" stroke="white" stroke-width="0.36706" stroke-miterlimit="10" stroke-linecap="round"/>
<path d="M30.1205 9.16016L30.1251 9.1761" stroke="white" stroke-width="0.36706" stroke-miterlimit="10" stroke-linecap="round"/>
<path d="M30.2875 9.90723C30.3109 10.0292 30.3354 10.1646 30.3595 10.3113" stroke="white" stroke-width="0.36706" stroke-miterlimit="10" stroke-linecap="round" stroke-dasharray="0.05 1.04"/>
<path d="M30.4147 10.6846C30.6672 12.5191 30.7647 15.64 29.1014 17.9343C27.5823 20.0305 23.6106 22.8333 19.7584 22.8333C17.6332 22.7866 15.5265 22.4244 13.5065 21.7585" stroke="white" stroke-width="0.36706" stroke-miterlimit="10" stroke-linecap="round" stroke-dasharray="0.05 1.04 0.05 1.04"/>
<path d="M13.1532 21.6376L13.1373 21.6313" stroke="white" stroke-width="0.36706" stroke-miterlimit="10" stroke-linecap="round"/>
<path d="M31.4489 12.2793L31.4492 12.2959" stroke="white" stroke-width="0.36706" stroke-miterlimit="10" stroke-linecap="round"/>
<path d="M31.4516 13.0645C31.4498 13.1921 31.4465 13.3325 31.4415 13.4841" stroke="white" stroke-width="0.36706" stroke-miterlimit="10" stroke-linecap="round" stroke-dasharray="0.05 1.07"/>
<path d="M31.4264 13.8696C31.3405 15.7048 31.0042 18.6205 29.7663 19.8047C27.5168 22.122 24.516 23.5518 21.308 23.8348C18.6609 23.9381 16.0103 23.7591 13.4007 23.3008" stroke="white" stroke-width="0.36706" stroke-miterlimit="10" stroke-linecap="round" stroke-dasharray="0.05 1.07 0.05 1.07"/>
<path d="M13.0212 23.237L13.0044 23.2339" stroke="white" stroke-width="0.36706" stroke-miterlimit="10" stroke-linecap="round"/>
<path d="M32.2908 14.061L32.2928 14.0777" stroke="white" stroke-width="0.36706" stroke-miterlimit="10" stroke-linecap="round"/>
<path d="M32.3599 14.8501C32.3682 14.9792 32.3762 15.1217 32.3827 15.2747" stroke="white" stroke-width="0.36706" stroke-miterlimit="10" stroke-linecap="round" stroke-dasharray="0.05 1.08"/>
<path d="M32.394 15.6641C32.4259 17.2743 32.2628 19.6758 31.1392 20.8303C29.0577 22.9674 25.4015 24.0691 21.8394 25.1933C19.339 25.9839 16.3779 25.4853 15.3256 25.2631" stroke="white" stroke-width="0.36706" stroke-miterlimit="10" stroke-linecap="round" stroke-dasharray="0.05 1.08 0.05 1.08"/>
<path d="M14.9475 25.1758L14.9307 25.1719" stroke="white" stroke-width="0.36706" stroke-miterlimit="10" stroke-linecap="round"/>
<path d="M15.3515 6.19971L15.3561 6.21565" stroke="white" stroke-width="0.36706" stroke-miterlimit="10" stroke-linecap="round"/>
<path d="M15.7926 6.79785C15.8764 6.87896 15.9764 6.96642 16.0946 7.06161" stroke="white" stroke-width="0.36706" stroke-miterlimit="10" stroke-linecap="round" stroke-dasharray="0.05 1.02"/>
<path d="M16.3878 7.28125C18.1585 8.3981 20.0799 9.25276 22.0929 9.81892C22.8647 10.07 23.4145 14.6192 24.5655 15.4338C24.968 15.7187 25.2297 15.9042 25.3997 16.0248" stroke="white" stroke-width="0.36706" stroke-miterlimit="10" stroke-linecap="round" stroke-dasharray="0.05 1.02 0.05 1.02"/>
<path d="M25.7035 16.2393L25.7176 16.2495" stroke="white" stroke-width="0.36706" stroke-miterlimit="10" stroke-linecap="round"/>
<path d="M28.8805 6.80127C28.8805 6.80127 27.5707 7.26183 27.4852 8.07079C27.3526 9.33959 28.0392 11.2665 28.0178 12.1453C28.062 13.618 27.6433 15.0672 26.8214 16.2868C25.6922 18.4915 22.8019 19.5593 22.8019 19.5593" stroke="white" stroke-width="0.36706" stroke-miterlimit="10" stroke-linecap="round" stroke-dasharray="0.05 1.05 0.05 1.05"/>
<path d="M21.6401 10.4753C21.6401 10.4753 18.5844 10.7419 16.857 10.007C15.9904 9.70268 15.206 9.19998 14.5657 8.53857" stroke="white" stroke-width="0.36706" stroke-miterlimit="10" stroke-linecap="round" stroke-dasharray="0.05 1.05 0.05 1.05"/>
<path d="M22.0613 11.4327C21.7626 11.683 21.4153 11.8677 21.0415 11.9751C20.6677 12.0824 20.2757 12.1101 19.8906 12.0562C18.372 11.8629 16.8696 11.5574 15.3957 11.1421" stroke="white" stroke-width="0.36706" stroke-miterlimit="10" stroke-linecap="round" stroke-dasharray="0.05 1.05 0.05 1.05"/>
<path d="M16.724 13.1475C16.724 13.1475 17.3763 13.2146 18.4297 13.2146C19.536 13.2146 21.6177 12.8139 21.6619 12.4126" stroke="white" stroke-width="0.36706" stroke-miterlimit="10" stroke-linecap="round" stroke-dasharray="0.05 1.05 0.05 1.05"/>
<path d="M17.4882 15.0399C18.3926 15.2241 19.3319 15.1108 20.1673 14.7169C21.6959 13.9375 21.5185 13.4924 22.0613 13.0806C22.3377 12.7557 22.5582 12.3867 22.7136 11.9888" stroke="white" stroke-width="0.36706" stroke-miterlimit="10" stroke-linecap="round" stroke-dasharray="0.05 1.05 0.05 1.05"/>
<path d="M19.9015 16.4204C20.7366 16.0746 21.4964 15.5676 22.1377 14.928C22.4475 14.4872 22.7076 14.0132 22.9134 13.5146" stroke="white" stroke-width="0.36706" stroke-miterlimit="10" stroke-linecap="round" stroke-dasharray="0.05 1.05 0.05 1.05"/>
<path d="M21.5622 17.1775C21.5622 17.1775 22.5915 16.5871 22.7585 15.9531C22.9239 15.319 23.2118 14.1489 23.2118 14.1489" stroke="white" stroke-width="0.36706" stroke-miterlimit="10" stroke-linecap="round" stroke-dasharray="0.05 1.05 0.05 1.05"/>
<path d="M23.7218 15.2847C23.965 15.9463 24.0334 16.66 23.9202 17.3561C23.585 18.0785 23.1471 18.748 22.6203 19.3436" stroke="white" stroke-width="0.36706" stroke-miterlimit="10" stroke-linecap="round" stroke-dasharray="0.05 1.05 0.05 1.05"/>
<path d="M30.3449 6.90761C30.3446 7.01609 30.3124 7.12205 30.2522 7.21209C30.1921 7.30214 30.1067 7.37224 30.007 7.41353C29.9072 7.45482 29.7975 7.46546 29.6918 7.44408C29.586 7.42271 29.4889 7.3703 29.4128 7.29346C29.3366 7.21663 29.2849 7.11882 29.264 7.01239C29.2431 6.90597 29.254 6.7957 29.2954 6.69553C29.3368 6.59536 29.4068 6.50978 29.4966 6.4496C29.5863 6.38942 29.6918 6.35734 29.7997 6.35742C29.8714 6.35752 29.9424 6.37183 30.0086 6.39954C30.0749 6.42725 30.135 6.46781 30.1857 6.5189C30.2363 6.57 30.2764 6.63062 30.3037 6.69732C30.3311 6.76402 30.3451 6.83548 30.3449 6.90761V6.90761Z" fill="white"/>
<path d="M38.2246 6.66797C38.2698 7.20191 34.9136 9.70217 34.9258 10.308C35.0142 14.8952 33.5308 14.5948 33.0438 14.5052" stroke="white" stroke-width="0.36706" stroke-miterlimit="10" stroke-linecap="round" stroke-dasharray="0.05 1.05 0.05 1.05"/>
<path d="M40.3953 7.82568C39.7912 8.05576 39.1689 8.23437 38.535 8.35962C38.0037 8.40404 37.4724 8.40404 37.4724 8.40404" stroke="white" stroke-width="0.36706" stroke-miterlimit="10" stroke-linecap="round" stroke-dasharray="0.05 1.05 0.05 1.05"/>
<path d="M40.3953 9.87399C39.9266 10.0642 39.4027 10.0642 38.934 9.87399C37.9591 9.5622 36.6308 9.07275 36.6308 9.07275" stroke="white" stroke-width="0.36706" stroke-miterlimit="10" stroke-linecap="round" stroke-dasharray="0.05 1.05 0.05 1.05"/>
<path d="M39.6866 12.3681C39.2246 12.3049 38.7925 12.1028 38.4466 11.7884C37.6941 11.2101 36.143 9.65137 36.143 9.65137" stroke="white" stroke-width="0.36706" stroke-miterlimit="10" stroke-linecap="round" stroke-dasharray="0.05 1.05 0.05 1.05"/>
<path d="M39.2437 14.5939C38.7017 14.5621 38.1796 14.3767 37.7379 14.0593C36.9846 13.4366 35.612 10.4531 35.612 10.4531" stroke="white" stroke-width="0.36706" stroke-miterlimit="10" stroke-linecap="round" stroke-dasharray="0.05 1.05 0.05 1.05"/>
<path d="M38.2246 16.4656C37.5962 15.9566 37.0313 15.3731 36.542 14.7278C36.0663 13.9674 35.6659 13.1618 35.3466 12.3228" stroke="white" stroke-width="0.36706" stroke-miterlimit="10" stroke-linecap="round" stroke-dasharray="0.05 1.05 0.05 1.05"/>
<path d="M37.295 18.1136C36.8635 17.668 36.5047 17.1567 36.2317 16.5986C35.7905 15.6579 35.406 14.6913 35.0805 13.7041" stroke="white" stroke-width="0.36706" stroke-miterlimit="10" stroke-linecap="round" stroke-dasharray="0.05 1.05 0.05 1.05"/>
<path d="M35.9217 19.0472C35.9217 19.0472 35.9217 19.2715 35.3466 17.5336C34.7708 15.7972 34.505 14.728 34.505 14.728" stroke="white" stroke-width="0.36706" stroke-miterlimit="10" stroke-linecap="round" stroke-dasharray="0.05 1.05 0.05 1.05"/>
<path d="M33.7079 15.2627C33.7079 15.2627 34.1508 17.3561 33.9289 17.9343C33.7914 18.3209 33.7168 18.7272 33.7079 19.1376" stroke="white" stroke-width="0.36706" stroke-miterlimit="10" stroke-linecap="round" stroke-dasharray="0.05 1.05 0.05 1.05"/>
<path d="M31.6263 21.5864C31.1004 22.3944 30.6697 23.2612 30.3428 24.1692C30.3937 25.3432 30.5716 26.5082 30.8734 27.6435C31.0509 27.999 31.5376 29.1119 31.5376 29.1119L32.1134 29.9145L32.8221 30.4054" stroke="white" stroke-width="0.36706" stroke-miterlimit="10" stroke-linecap="round" stroke-dasharray="0.05 1.05 0.05 1.05"/>
<path d="M31.1392 30.6269L31.3174 29.5576" stroke="white" stroke-width="0.36706" stroke-miterlimit="10" stroke-linecap="round" stroke-dasharray="0.05 1.05 0.05 1.05"/>
<path d="M33.1654 28.8579L32.1572 29.291" stroke="white" stroke-width="0.36706" stroke-miterlimit="10" stroke-linecap="round" stroke-dasharray="0.05 1.05 0.05 1.05"/>
<path d="M27.9063 23.6782C27.9063 23.6782 27.3751 25.0606 27.1535 25.5501C26.8338 26.1046 26.6659 26.7344 26.6668 27.3754C26.7993 27.8211 27.1976 29.4686 27.1976 29.4686L27.6405 30.0484" stroke="white" stroke-width="0.36706" stroke-miterlimit="10" stroke-linecap="round" stroke-dasharray="0.05 1.05 0.05 1.05"/>
<path d="M28.3499 29.2907L27.4638 29.0679" stroke="white" stroke-width="0.36706" stroke-miterlimit="10" stroke-linecap="round" stroke-dasharray="0.05 1.05 0.05 1.05"/>
<path d="M26.0905 30.0921L26.7078 28.9072" stroke="white" stroke-width="0.36706" stroke-miterlimit="10" stroke-linecap="round" stroke-dasharray="0.05 1.05 0.05 1.05"/>
<path d="M26.4902 24.2593C26.3772 24.877 26.303 25.5013 26.268 26.1283" stroke="white" stroke-width="0.36706" stroke-miterlimit="10" stroke-linecap="round" stroke-dasharray="0.05 1.05 0.05 1.05"/>
<path d="M29.611 23.502C29.5362 24.2833 29.581 25.0716 29.7438 25.8393C30.01 26.5079 30.475 27.7774 30.475 27.7774" stroke="white" stroke-width="0.36706" stroke-miterlimit="10" stroke-linecap="round" stroke-dasharray="0.05 1.05 0.05 1.05"/>
<path d="M39.3713 20.6665C39.3719 21.5248 39.2972 22.3816 39.1479 23.2267C39.8409 23.7476 40.5791 24.2046 41.3537 24.5922C42.0324 22.9327 42.3774 21.1545 42.3688 19.3602C42.3688 14.4959 39.4358 9.41705 34.4082 7.99658C34.2202 8.39012 34.0761 8.91489 33.8607 9.41423C37.1711 11.0857 39.3713 15.4607 39.3713 20.6665Z" fill="black"/>
</svg>
