<svg width="120" height="42" viewBox="0 0 120 42" fill="none" xmlns="http://www.w3.org/2000/svg">
<path d="M67.3135 25.9525V8.82451H71.0354V34.9521L52.9226 16.2402V33.4454H49.1415V7.13379L67.3135 25.9525Z" fill="#3A3A3A"/>
<path d="M30.4153 33.4507V8.83057H44.1189V12.2793H34.219V18.2398H43.8502V21.7207H34.2192V29.9942H44.1309V33.4507H30.4153Z" fill="#3A3A3A"/>
<path d="M110.124 8.83545V12.2982H100.147C100.147 12.7101 100.147 13.0592 100.147 13.4084C100.147 14.8117 100.166 16.2153 100.136 17.618C100.126 18.1049 100.265 18.2568 100.77 18.2525C103.549 18.229 106.328 18.2413 109.106 18.2413C109.324 18.2413 109.542 18.2413 109.813 18.2413V21.7347H100.189V29.9985H110.12V33.4508H96.4241V8.83545H110.124Z" fill="#3A3A3A"/>
<path d="M75.8501 26.6858C77.1194 26.4084 78.3583 26.1376 79.5921 25.8679C79.749 26.548 79.8555 27.1923 80.0481 27.8104C80.6075 29.6054 82.3061 30.6489 84.2958 30.4581C86.2303 30.2726 87.7042 28.9157 87.9715 27.1233C88.2509 25.2491 87.6066 23.7943 85.9331 22.8876C84.7823 22.2641 83.5368 21.8138 82.358 21.2375C81.3953 20.7668 80.3965 20.3209 79.5387 19.6962C76.1228 17.2087 76.0358 12.7153 79.2982 10.0281C83.0759 6.91635 88.9117 8.09557 91.1548 12.4856C90.1732 13.0636 89.1861 13.6448 88.1619 14.2478C87.9385 13.9294 87.7158 13.6342 87.5164 13.3243C86.2152 11.3021 82.9607 11.5246 81.6319 12.8624C80.4337 14.0687 80.4704 15.827 81.8368 16.8467C82.4182 17.2805 83.0996 17.5969 83.7653 17.9035C85.1389 18.536 86.5833 19.0345 87.9079 19.7517C91.2272 21.5491 92.4949 24.58 91.572 28.2287C90.747 31.4902 87.727 33.8472 84.2554 33.9389C79.5842 34.0622 76.4508 31.3882 75.8501 26.6858Z" fill="#3A3A3A"/>
<path d="M9.85422 26.69L13.6276 25.8619C13.7346 26.4008 13.814 26.9066 13.9371 27.4018C14.497 29.656 16.3791 30.7965 18.8316 30.3805C20.84 30.0398 22.2642 28.0689 22.0454 25.9563C21.9263 24.8066 21.4366 23.8482 20.4554 23.2299C19.619 22.7028 18.7124 22.28 17.8185 21.8483C16.6365 21.2776 15.3908 20.8219 14.2552 20.1748C12.5424 19.199 11.3114 17.7908 11.0407 15.772C10.6003 12.4881 12.5472 9.65366 15.8698 8.66756C19.7068 7.52882 23.1725 8.92344 25.1901 12.4762L22.1693 14.251C21.9565 13.9388 21.7606 13.6666 21.5803 13.3846C20.2287 11.2698 17.0675 11.5863 15.7929 12.7296C14.4245 13.9571 14.4379 15.8347 15.9323 16.9113C16.4903 17.3133 17.133 17.6137 17.7657 17.8981C18.9822 18.445 20.2475 18.8913 21.4412 19.4811C23.4369 20.4671 25.0624 21.8493 25.5971 24.1087C26.9403 29.7839 22.7857 33.8638 18.1664 33.9457C13.5694 34.0272 10.6643 31.5392 9.85422 26.69Z" fill="#3A3A3A"/>
</svg>
