<svg width="47" height="40" viewBox="0 0 47 40" fill="none" xmlns="http://www.w3.org/2000/svg">
<path d="M1.08456 0.374023H2.43398V1.71539H1.08456V0.374023Z" fill="#3A3A3A"/>
<path d="M7.80741 0.374023H9.14478V1.71539H7.80741V0.374023Z" fill="#3A3A3A"/>
<path d="M14.5183 0.374023H15.8556V1.71539H14.5183V0.374023Z" fill="#3A3A3A"/>
<path d="M4.44601 3.74553H5.79542V5.09897H4.44601V3.74553Z" fill="#3A3A3A"/>
<path d="M11.1568 3.74553H12.4942V5.09897H11.1568V3.74553Z" fill="#3A3A3A"/>
<path d="M7.80741 7.11707H9.14478V8.45843H7.80741V7.11707Z" fill="#3A3A3A"/>
<path d="M4.44601 10.4886H5.79542V11.8299H4.44601V10.4886Z" fill="#3A3A3A"/>
<path d="M7.80741 10.4886H9.14478V11.8299H7.80741V10.4886Z" fill="#3A3A3A"/>
<path d="M11.1568 10.4886H12.4942V11.8299H11.1568V10.4886Z" fill="#3A3A3A"/>
<path d="M7.80741 13.848H9.14478V15.1894H7.80741V13.848Z" fill="#3A3A3A"/>
<path d="M11.1568 13.848H12.4942V15.1894H11.1568V13.848Z" fill="#3A3A3A"/>
<path d="M7.80741 17.2195H9.14478V18.573H7.80741V17.2195Z" fill="#3A3A3A"/>
<path d="M11.1568 17.2195H12.4942V18.573H11.1568V17.2195Z" fill="#3A3A3A"/>
<path d="M1.08456 13.848H2.43398V15.1894H1.08456V13.848Z" fill="#3A3A3A"/>
<path d="M7.80741 20.5911H9.14478V21.9324H7.80741V20.5911Z" fill="#3A3A3A"/>
<path d="M11.1568 20.5911H12.4942V21.9324H11.1568V20.5911Z" fill="#3A3A3A"/>
<path d="M7.80741 23.9505H9.14478V25.3039H7.80741V23.9505Z" fill="#3A3A3A"/>
<path d="M11.1568 23.9505H12.4942V25.3039H11.1568V23.9505Z" fill="#3A3A3A"/>
<path d="M4.44601 23.9505H5.79542V25.3039H4.44601V23.9505Z" fill="#3A3A3A"/>
<path d="M4.44601 27.3221H5.79542V28.6634H4.44601V27.3221Z" fill="#3A3A3A"/>
<path d="M7.80741 27.3221H9.14478V28.6634H7.80741V27.3221Z" fill="#3A3A3A"/>
<path d="M11.1568 27.3221H12.4942V28.6634H11.1568V27.3221Z" fill="#3A3A3A"/>
<path d="M7.80741 30.6815H9.14478V32.0349H7.80741V30.6815Z" fill="#3A3A3A"/>
<path d="M11.1568 30.6815H12.4942V32.0349H11.1568V30.6815Z" fill="#3A3A3A"/>
<path d="M14.5183 30.6815H15.8556V32.0349H14.5183V30.6815Z" fill="#3A3A3A"/>
<path d="M17.8676 30.6815H19.217V32.0349H17.8676V30.6815Z" fill="#3A3A3A"/>
<path d="M21.2411 30.6815H22.5785V32.0349H21.2411V30.6815Z" fill="#3A3A3A"/>
<path d="M24.5908 30.6815H25.9281V32.0349H24.5908V30.6815Z" fill="#3A3A3A"/>
<path d="M27.9402 30.6815H29.2896V32.0349H27.9402V30.6815Z" fill="#3A3A3A"/>
<path d="M14.5183 34.0651H15.8556V35.4064H14.5183V34.0651Z" fill="#3A3A3A"/>
<path d="M14.5183 37.4245H15.8556V38.7659H14.5183V37.4245Z" fill="#3A3A3A"/>
<path d="M11.1568 37.4245H12.4942V38.7659H11.1568V37.4245Z" fill="#3A3A3A"/>
<path d="M24.5908 34.0651H25.9281V35.4064H24.5908V34.0651Z" fill="#3A3A3A"/>
<path d="M24.5908 37.4245H25.9281V38.7659H24.5908V37.4245Z" fill="#3A3A3A"/>
<path d="M21.2411 37.4245H22.5785V38.7659H21.2411V37.4245Z" fill="#3A3A3A"/>
<path d="M31.3016 27.3221H32.651V28.6634H31.3016V27.3221Z" fill="#3A3A3A"/>
<path d="M34.6631 23.9505H36.0125V25.3039H34.6631V23.9505Z" fill="#3A3A3A"/>
<path d="M27.9402 27.3221H29.2896V28.6634H27.9402V27.3221Z" fill="#3A3A3A"/>
<path d="M14.5183 27.3221H15.8556V28.6634H14.5183V27.3221Z" fill="#3A3A3A"/>
<path d="M17.8676 27.3221H19.217V28.6634H17.8676V27.3221Z" fill="#3A3A3A"/>
<path d="M21.2411 27.3221H22.5785V28.6634H21.2411V27.3221Z" fill="#3A3A3A"/>
<path d="M24.5908 27.3221H25.9281V28.6634H24.5908V27.3221Z" fill="#3A3A3A"/>
<path d="M14.5183 23.9505H15.8556V25.3039H14.5183V23.9505Z" fill="#3A3A3A"/>
<path d="M17.8676 23.9505H19.217V25.3039H17.8676V23.9505Z" fill="#3A3A3A"/>
<path d="M21.2411 23.9505H22.5785V25.3039H21.2411V23.9505Z" fill="#3A3A3A"/>
<path d="M24.5908 23.9505H25.9281V25.3039H24.5908V23.9505Z" fill="#3A3A3A"/>
<path d="M14.5183 20.5911H15.8556V21.9324H14.5183V20.5911Z" fill="#3A3A3A"/>
<path d="M17.8676 20.5911H19.217V21.9324H17.8676V20.5911Z" fill="#3A3A3A"/>
<path d="M21.2411 20.5911H22.5785V21.9324H21.2411V20.5911Z" fill="#3A3A3A"/>
<path d="M24.5908 20.5911H25.9281V21.9324H24.5908V20.5911Z" fill="#3A3A3A"/>
<path d="M27.9402 23.9505H29.2896V25.3039H27.9402V23.9505Z" fill="#3A3A3A"/>
<path d="M31.3016 23.9505H32.651V25.3039H31.3016V23.9505Z" fill="#3A3A3A"/>
<path d="M17.8676 17.2195H19.217V18.573H17.8676V17.2195Z" fill="#3A3A3A"/>
<path d="M21.2411 17.2195H22.5785V18.573H21.2411V17.2195Z" fill="#3A3A3A"/>
<path d="M24.5908 17.2195H25.9281V18.573H24.5908V17.2195Z" fill="#3A3A3A"/>
<path d="M27.9402 17.2195H29.2896V18.573H27.9402V17.2195Z" fill="#3A3A3A"/>
<path d="M31.3016 17.2195H32.651V18.573H31.3016V17.2195Z" fill="#3A3A3A"/>
<path d="M21.2411 13.848H22.5785V15.1894H21.2411V13.848Z" fill="#3A3A3A"/>
<path d="M24.5908 13.848H25.9281V15.1894H24.5908V13.848Z" fill="#3A3A3A"/>
<path d="M27.9402 13.848H29.2896V15.1894H27.9402V13.848Z" fill="#3A3A3A"/>
<path d="M24.5908 10.4886H25.9281V11.8299H24.5908V10.4886Z" fill="#3A3A3A"/>
<path d="M27.9402 10.4886H29.2896V11.8299H27.9402V10.4886Z" fill="#3A3A3A"/>
<path d="M31.3016 10.4886H32.651V11.8299H31.3016V10.4886Z" fill="#3A3A3A"/>
<path d="M34.6631 10.4886H36.0125V11.8299H34.6631V10.4886Z" fill="#3A3A3A"/>
<path d="M27.9402 7.11707H29.2896V8.45843H27.9402V7.11707Z" fill="#3A3A3A"/>
<path d="M31.3016 7.11707H32.651V8.45843H31.3016V7.11707Z" fill="#3A3A3A"/>
<path d="M34.6631 7.11707H36.0125V8.45843H34.6631V7.11707Z" fill="#3A3A3A"/>
<path d="M38.0246 7.11707H39.362V8.45843H38.0246V7.11707Z" fill="#3A3A3A"/>
<path d="M31.3016 3.74553H32.651V5.09897H31.3016V3.74553Z" fill="#3A3A3A"/>
<path d="M34.6631 3.74553H36.0125V5.09897H34.6631V3.74553Z" fill="#3A3A3A"/>
<path d="M38.0246 3.74553H39.362V5.09897H38.0246V3.74553Z" fill="#3A3A3A"/>
<path d="M41.3741 3.74553H42.7114V5.09897H41.3741V3.74553Z" fill="#3A3A3A"/>
<path d="M38.0246 20.5911H39.362V21.9324H38.0246V20.5911Z" fill="#3A3A3A"/>
<path d="M41.3741 17.2195H42.7114V18.573H41.3741V17.2195Z" fill="#3A3A3A"/>
<path d="M44.7354 13.848H46.0848V15.1894H44.7354V13.848Z" fill="#3A3A3A"/>
<path d="M38.0246 28.6634H39.362V27.3221H38.0246V28.6634Z" fill="#3A3A3A"/>
<path d="M41.3741 32.0349H42.7114V30.6815H41.3741V32.0349Z" fill="#3A3A3A"/>
<path d="M44.7354 35.4064H46.0848V34.0651H44.7354V35.4064Z" fill="#3A3A3A"/>
<path d="M41.3741 25.3039H42.7114V23.9505H41.3741V25.3039Z" fill="#3A3A3A"/>
<path d="M44.7354 21.9324H46.0848V20.5911H44.7354V21.9324Z" fill="#3A3A3A"/>
<path d="M44.7354 28.6634H46.0848V27.3221H44.7354V28.6634Z" fill="#3A3A3A"/>
<path d="M1.08456 0.374023H2.43398V1.71539H1.08456V0.374023Z" stroke="#3A3A3A" stroke-width="0.72" stroke-miterlimit="10" stroke-linecap="round" stroke-linejoin="round"/>
<path d="M7.80741 0.374023H9.14478V1.71539H7.80741V0.374023Z" stroke="#3A3A3A" stroke-width="0.72" stroke-miterlimit="10" stroke-linecap="round" stroke-linejoin="round"/>
<path d="M14.5183 0.374023H15.8556V1.71539H14.5183V0.374023Z" stroke="#3A3A3A" stroke-width="0.72" stroke-miterlimit="10" stroke-linecap="round" stroke-linejoin="round"/>
<path d="M4.44601 3.74553H5.79542V5.09897H4.44601V3.74553Z" stroke="#3A3A3A" stroke-width="0.72" stroke-miterlimit="10" stroke-linecap="round" stroke-linejoin="round"/>
<path d="M11.1568 3.74553H12.4942V5.09897H11.1568V3.74553Z" stroke="#3A3A3A" stroke-width="0.72" stroke-miterlimit="10" stroke-linecap="round" stroke-linejoin="round"/>
<path d="M7.80741 7.11707H9.14478V8.45843H7.80741V7.11707Z" stroke="#3A3A3A" stroke-width="0.72" stroke-miterlimit="10" stroke-linecap="round" stroke-linejoin="round"/>
<path d="M4.44601 10.4886H5.79542V11.8299H4.44601V10.4886Z" stroke="#3A3A3A" stroke-width="0.72" stroke-miterlimit="10" stroke-linecap="round" stroke-linejoin="round"/>
<path d="M7.80741 10.4886H9.14478V11.8299H7.80741V10.4886Z" stroke="#3A3A3A" stroke-width="0.72" stroke-miterlimit="10" stroke-linecap="round" stroke-linejoin="round"/>
<path d="M11.1568 10.4886H12.4942V11.8299H11.1568V10.4886Z" stroke="#3A3A3A" stroke-width="0.72" stroke-miterlimit="10" stroke-linecap="round" stroke-linejoin="round"/>
<path d="M7.80741 13.848H9.14478V15.1894H7.80741V13.848Z" stroke="#3A3A3A" stroke-width="0.72" stroke-miterlimit="10" stroke-linecap="round" stroke-linejoin="round"/>
<path d="M11.1568 13.848H12.4942V15.1894H11.1568V13.848Z" stroke="#3A3A3A" stroke-width="0.72" stroke-miterlimit="10" stroke-linecap="round" stroke-linejoin="round"/>
<path d="M7.80741 17.2195H9.14478V18.573H7.80741V17.2195Z" stroke="#3A3A3A" stroke-width="0.72" stroke-miterlimit="10" stroke-linecap="round" stroke-linejoin="round"/>
<path d="M11.1568 17.2195H12.4942V18.573H11.1568V17.2195Z" stroke="#3A3A3A" stroke-width="0.72" stroke-miterlimit="10" stroke-linecap="round" stroke-linejoin="round"/>
<path d="M1.08456 13.848H2.43398V15.1894H1.08456V13.848Z" stroke="#3A3A3A" stroke-width="0.72" stroke-miterlimit="10" stroke-linecap="round" stroke-linejoin="round"/>
<path d="M7.80741 20.5911H9.14478V21.9324H7.80741V20.5911Z" stroke="#3A3A3A" stroke-width="0.72" stroke-miterlimit="10" stroke-linecap="round" stroke-linejoin="round"/>
<path d="M11.1568 20.5911H12.4942V21.9324H11.1568V20.5911Z" stroke="#3A3A3A" stroke-width="0.72" stroke-miterlimit="10" stroke-linecap="round" stroke-linejoin="round"/>
<path d="M7.80741 23.9505H9.14478V25.3039H7.80741V23.9505Z" stroke="#3A3A3A" stroke-width="0.72" stroke-miterlimit="10" stroke-linecap="round" stroke-linejoin="round"/>
<path d="M11.1568 23.9505H12.4942V25.3039H11.1568V23.9505Z" stroke="#3A3A3A" stroke-width="0.72" stroke-miterlimit="10" stroke-linecap="round" stroke-linejoin="round"/>
<path d="M4.44601 23.9505H5.79542V25.3039H4.44601V23.9505Z" stroke="#3A3A3A" stroke-width="0.72" stroke-miterlimit="10" stroke-linecap="round" stroke-linejoin="round"/>
<path d="M4.44601 27.3221H5.79542V28.6634H4.44601V27.3221Z" stroke="#3A3A3A" stroke-width="0.72" stroke-miterlimit="10" stroke-linecap="round" stroke-linejoin="round"/>
<path d="M7.80741 27.3221H9.14478V28.6634H7.80741V27.3221Z" stroke="#3A3A3A" stroke-width="0.72" stroke-miterlimit="10" stroke-linecap="round" stroke-linejoin="round"/>
<path d="M11.1568 27.3221H12.4942V28.6634H11.1568V27.3221Z" stroke="#3A3A3A" stroke-width="0.72" stroke-miterlimit="10" stroke-linecap="round" stroke-linejoin="round"/>
<path d="M7.80741 30.6815H9.14478V32.0349H7.80741V30.6815Z" stroke="#3A3A3A" stroke-width="0.72" stroke-miterlimit="10" stroke-linecap="round" stroke-linejoin="round"/>
<path d="M11.1568 30.6815H12.4942V32.0349H11.1568V30.6815Z" stroke="#3A3A3A" stroke-width="0.72" stroke-miterlimit="10" stroke-linecap="round" stroke-linejoin="round"/>
<path d="M14.5183 30.6815H15.8556V32.0349H14.5183V30.6815Z" stroke="#3A3A3A" stroke-width="0.72" stroke-miterlimit="10" stroke-linecap="round" stroke-linejoin="round"/>
<path d="M17.8676 30.6815H19.217V32.0349H17.8676V30.6815Z" stroke="#3A3A3A" stroke-width="0.72" stroke-miterlimit="10" stroke-linecap="round" stroke-linejoin="round"/>
<path d="M21.2411 30.6815H22.5785V32.0349H21.2411V30.6815Z" stroke="#3A3A3A" stroke-width="0.72" stroke-miterlimit="10" stroke-linecap="round" stroke-linejoin="round"/>
<path d="M24.5908 30.6815H25.9281V32.0349H24.5908V30.6815Z" stroke="#3A3A3A" stroke-width="0.72" stroke-miterlimit="10" stroke-linecap="round" stroke-linejoin="round"/>
<path d="M27.9402 30.6815H29.2896V32.0349H27.9402V30.6815Z" stroke="#3A3A3A" stroke-width="0.72" stroke-miterlimit="10" stroke-linecap="round" stroke-linejoin="round"/>
<path d="M14.5183 34.0651H15.8556V35.4064H14.5183V34.0651Z" stroke="#3A3A3A" stroke-width="0.72" stroke-miterlimit="10" stroke-linecap="round" stroke-linejoin="round"/>
<path d="M14.5183 37.4245H15.8556V38.7659H14.5183V37.4245Z" stroke="#3A3A3A" stroke-width="0.72" stroke-miterlimit="10" stroke-linecap="round" stroke-linejoin="round"/>
<path d="M11.1568 37.4245H12.4942V38.7659H11.1568V37.4245Z" stroke="#3A3A3A" stroke-width="0.72" stroke-miterlimit="10" stroke-linecap="round" stroke-linejoin="round"/>
<path d="M24.5908 34.0651H25.9281V35.4064H24.5908V34.0651Z" stroke="#3A3A3A" stroke-width="0.72" stroke-miterlimit="10" stroke-linecap="round" stroke-linejoin="round"/>
<path d="M24.5908 37.4245H25.9281V38.7659H24.5908V37.4245Z" stroke="#3A3A3A" stroke-width="0.72" stroke-miterlimit="10" stroke-linecap="round" stroke-linejoin="round"/>
<path d="M21.2411 37.4245H22.5785V38.7659H21.2411V37.4245Z" stroke="#3A3A3A" stroke-width="0.72" stroke-miterlimit="10" stroke-linecap="round" stroke-linejoin="round"/>
<path d="M31.3016 27.3221H32.651V28.6634H31.3016V27.3221Z" stroke="#3A3A3A" stroke-width="0.72" stroke-miterlimit="10" stroke-linecap="round" stroke-linejoin="round"/>
<path d="M34.6631 23.9505H36.0125V25.3039H34.6631V23.9505Z" stroke="#3A3A3A" stroke-width="0.72" stroke-miterlimit="10" stroke-linecap="round" stroke-linejoin="round"/>
<path d="M27.9402 27.3221H29.2896V28.6634H27.9402V27.3221Z" stroke="#3A3A3A" stroke-width="0.72" stroke-miterlimit="10" stroke-linecap="round" stroke-linejoin="round"/>
<path d="M14.5183 27.3221H15.8556V28.6634H14.5183V27.3221Z" stroke="#3A3A3A" stroke-width="0.72" stroke-miterlimit="10" stroke-linecap="round" stroke-linejoin="round"/>
<path d="M17.8676 27.3221H19.217V28.6634H17.8676V27.3221Z" stroke="#3A3A3A" stroke-width="0.72" stroke-miterlimit="10" stroke-linecap="round" stroke-linejoin="round"/>
<path d="M21.2411 27.3221H22.5785V28.6634H21.2411V27.3221Z" stroke="#3A3A3A" stroke-width="0.72" stroke-miterlimit="10" stroke-linecap="round" stroke-linejoin="round"/>
<path d="M24.5908 27.3221H25.9281V28.6634H24.5908V27.3221Z" stroke="#3A3A3A" stroke-width="0.72" stroke-miterlimit="10" stroke-linecap="round" stroke-linejoin="round"/>
<path d="M14.5183 23.9505H15.8556V25.3039H14.5183V23.9505Z" stroke="#3A3A3A" stroke-width="0.72" stroke-miterlimit="10" stroke-linecap="round" stroke-linejoin="round"/>
<path d="M17.8676 23.9505H19.217V25.3039H17.8676V23.9505Z" stroke="#3A3A3A" stroke-width="0.72" stroke-miterlimit="10" stroke-linecap="round" stroke-linejoin="round"/>
<path d="M21.2411 23.9505H22.5785V25.3039H21.2411V23.9505Z" stroke="#3A3A3A" stroke-width="0.72" stroke-miterlimit="10" stroke-linecap="round" stroke-linejoin="round"/>
<path d="M24.5908 23.9505H25.9281V25.3039H24.5908V23.9505Z" stroke="#3A3A3A" stroke-width="0.72" stroke-miterlimit="10" stroke-linecap="round" stroke-linejoin="round"/>
<path d="M14.5183 20.5911H15.8556V21.9324H14.5183V20.5911Z" stroke="#3A3A3A" stroke-width="0.72" stroke-miterlimit="10" stroke-linecap="round" stroke-linejoin="round"/>
<path d="M17.8676 20.5911H19.217V21.9324H17.8676V20.5911Z" stroke="#3A3A3A" stroke-width="0.72" stroke-miterlimit="10" stroke-linecap="round" stroke-linejoin="round"/>
<path d="M21.2411 20.5911H22.5785V21.9324H21.2411V20.5911Z" stroke="#3A3A3A" stroke-width="0.72" stroke-miterlimit="10" stroke-linecap="round" stroke-linejoin="round"/>
<path d="M24.5908 20.5911H25.9281V21.9324H24.5908V20.5911Z" stroke="#3A3A3A" stroke-width="0.72" stroke-miterlimit="10" stroke-linecap="round" stroke-linejoin="round"/>
<path d="M27.9402 23.9505H29.2896V25.3039H27.9402V23.9505Z" stroke="#3A3A3A" stroke-width="0.72" stroke-miterlimit="10" stroke-linecap="round" stroke-linejoin="round"/>
<path d="M31.3016 23.9505H32.651V25.3039H31.3016V23.9505Z" stroke="#3A3A3A" stroke-width="0.72" stroke-miterlimit="10" stroke-linecap="round" stroke-linejoin="round"/>
<path d="M17.8676 17.2195H19.217V18.573H17.8676V17.2195Z" stroke="#3A3A3A" stroke-width="0.72" stroke-miterlimit="10" stroke-linecap="round" stroke-linejoin="round"/>
<path d="M21.2411 17.2195H22.5785V18.573H21.2411V17.2195Z" stroke="#3A3A3A" stroke-width="0.72" stroke-miterlimit="10" stroke-linecap="round" stroke-linejoin="round"/>
<path d="M24.5908 17.2195H25.9281V18.573H24.5908V17.2195Z" stroke="#3A3A3A" stroke-width="0.72" stroke-miterlimit="10" stroke-linecap="round" stroke-linejoin="round"/>
<path d="M27.9402 17.2195H29.2896V18.573H27.9402V17.2195Z" stroke="#3A3A3A" stroke-width="0.72" stroke-miterlimit="10" stroke-linecap="round" stroke-linejoin="round"/>
<path d="M31.3016 17.2195H32.651V18.573H31.3016V17.2195Z" stroke="#3A3A3A" stroke-width="0.72" stroke-miterlimit="10" stroke-linecap="round" stroke-linejoin="round"/>
<path d="M21.2411 13.848H22.5785V15.1894H21.2411V13.848Z" stroke="#3A3A3A" stroke-width="0.72" stroke-miterlimit="10" stroke-linecap="round" stroke-linejoin="round"/>
<path d="M24.5908 13.848H25.9281V15.1894H24.5908V13.848Z" stroke="#3A3A3A" stroke-width="0.72" stroke-miterlimit="10" stroke-linecap="round" stroke-linejoin="round"/>
<path d="M27.9402 13.848H29.2896V15.1894H27.9402V13.848Z" stroke="#3A3A3A" stroke-width="0.72" stroke-miterlimit="10" stroke-linecap="round" stroke-linejoin="round"/>
<path d="M24.5908 10.4886H25.9281V11.8299H24.5908V10.4886Z" stroke="#3A3A3A" stroke-width="0.72" stroke-miterlimit="10" stroke-linecap="round" stroke-linejoin="round"/>
<path d="M27.9402 10.4886H29.2896V11.8299H27.9402V10.4886Z" stroke="#3A3A3A" stroke-width="0.72" stroke-miterlimit="10" stroke-linecap="round" stroke-linejoin="round"/>
<path d="M31.3016 10.4886H32.651V11.8299H31.3016V10.4886Z" stroke="#3A3A3A" stroke-width="0.72" stroke-miterlimit="10" stroke-linecap="round" stroke-linejoin="round"/>
<path d="M34.6631 10.4886H36.0125V11.8299H34.6631V10.4886Z" stroke="#3A3A3A" stroke-width="0.72" stroke-miterlimit="10" stroke-linecap="round" stroke-linejoin="round"/>
<path d="M27.9402 7.11707H29.2896V8.45843H27.9402V7.11707Z" stroke="#3A3A3A" stroke-width="0.72" stroke-miterlimit="10" stroke-linecap="round" stroke-linejoin="round"/>
<path d="M31.3016 7.11707H32.651V8.45843H31.3016V7.11707Z" stroke="#3A3A3A" stroke-width="0.72" stroke-miterlimit="10" stroke-linecap="round" stroke-linejoin="round"/>
<path d="M34.6631 7.11707H36.0125V8.45843H34.6631V7.11707Z" stroke="#3A3A3A" stroke-width="0.72" stroke-miterlimit="10" stroke-linecap="round" stroke-linejoin="round"/>
<path d="M38.0246 7.11707H39.362V8.45843H38.0246V7.11707Z" stroke="#3A3A3A" stroke-width="0.72" stroke-miterlimit="10" stroke-linecap="round" stroke-linejoin="round"/>
<path d="M31.3016 3.74553H32.651V5.09897H31.3016V3.74553Z" stroke="#3A3A3A" stroke-width="0.72" stroke-miterlimit="10" stroke-linecap="round" stroke-linejoin="round"/>
<path d="M34.6631 3.74553H36.0125V5.09897H34.6631V3.74553Z" stroke="#3A3A3A" stroke-width="0.72" stroke-miterlimit="10" stroke-linecap="round" stroke-linejoin="round"/>
<path d="M38.0246 3.74553H39.362V5.09897H38.0246V3.74553Z" stroke="#3A3A3A" stroke-width="0.72" stroke-miterlimit="10" stroke-linecap="round" stroke-linejoin="round"/>
<path d="M41.3741 3.74553H42.7114V5.09897H41.3741V3.74553Z" stroke="#3A3A3A" stroke-width="0.72" stroke-miterlimit="10" stroke-linecap="round" stroke-linejoin="round"/>
<path d="M38.0246 20.5911H39.362V21.9324H38.0246V20.5911Z" stroke="#3A3A3A" stroke-width="0.72" stroke-miterlimit="10" stroke-linecap="round" stroke-linejoin="round"/>
<path d="M41.3741 17.2195H42.7114V18.573H41.3741V17.2195Z" stroke="#3A3A3A" stroke-width="0.72" stroke-miterlimit="10" stroke-linecap="round" stroke-linejoin="round"/>
<path d="M44.7354 13.848H46.0848V15.1894H44.7354V13.848Z" stroke="#3A3A3A" stroke-width="0.72" stroke-miterlimit="10" stroke-linecap="round" stroke-linejoin="round"/>
<path d="M38.0246 28.6634H39.362V27.3221H38.0246V28.6634Z" stroke="#3A3A3A" stroke-width="0.72" stroke-miterlimit="10" stroke-linecap="round" stroke-linejoin="round"/>
<path d="M41.3741 32.0349H42.7114V30.6815H41.3741V32.0349Z" stroke="#3A3A3A" stroke-width="0.72" stroke-miterlimit="10" stroke-linecap="round" stroke-linejoin="round"/>
<path d="M44.7354 35.4064H46.0848V34.0651H44.7354V35.4064Z" stroke="#3A3A3A" stroke-width="0.72" stroke-miterlimit="10" stroke-linecap="round" stroke-linejoin="round"/>
<path d="M41.3741 25.3039H42.7114V23.9505H41.3741V25.3039Z" stroke="#3A3A3A" stroke-width="0.72" stroke-miterlimit="10" stroke-linecap="round" stroke-linejoin="round"/>
<path d="M44.7354 21.9324H46.0848V20.5911H44.7354V21.9324Z" stroke="#3A3A3A" stroke-width="0.72" stroke-miterlimit="10" stroke-linecap="round" stroke-linejoin="round"/>
<path d="M44.7354 28.6634H46.0848V27.3221H44.7354V28.6634Z" stroke="#3A3A3A" stroke-width="0.72" stroke-miterlimit="10" stroke-linecap="round" stroke-linejoin="round"/>
</svg>
